Bodoni-96-Medium-Italic.ufo
<glyph name="dollar" format="2">
  <advance width="573"/>
  <unicode hex="0024"/>
  <outline>
    <contour>
      <point x="365" y="830" type="line"/>
      <point x="367" y="830" type="line"/>
      <point x="157" y="-80" type="line"/>
      <point x="155" y="-80" type="line"/>
    </contour>
    <contour>
      <point x="454" y="830" type="line"/>
      <point x="456" y="830" type="line"/>
      <point x="246" y="-80" type="line"/>
      <point x="244" y="-80" type="line"/>
    </contour>
    <contour>
      <point x="220" y="619" type="curve" smooth="yes"/>
      <point x="220" y="432"/>
      <point x="535" y="492"/>
      <point x="535" y="224" type="curve" smooth="yes"/>
      <point x="535" y="74"/>
      <point x="400" y="-15"/>
      <point x="259" y="-15" type="curve" smooth="yes"/>
      <point x="123" y="-15"/>
      <point x="30" y="74"/>
      <point x="30" y="152" type="curve" smooth="yes"/>
      <point x="30" y="200"/>
      <point x="58" y="239"/>
      <point x="106" y="239" type="curve" smooth="yes"/>
      <point x="140" y="239"/>
      <point x="176" y="214"/>
      <point x="176" y="168" type="curve" smooth="yes"/>
      <point x="176" y="122"/>
      <point x="140" y="96"/>
      <point x="102" y="96" type="curve" smooth="yes"/>
      <point x="64" y="96"/>
      <point x="39" y="124"/>
      <point x="33" y="145" type="curve"/>
      <point x="39" y="62"/>
      <point x="138" y="-13"/>
      <point x="259" y="-13" type="curve" smooth="yes"/>
      <point x="365" y="-13"/>
      <point x="429" y="74"/>
      <point x="429" y="159" type="curve" smooth="yes"/>
      <point x="429" y="366"/>
      <point x="122" y="281"/>
      <point x="122" y="533" type="curve" smooth="yes"/>
      <point x="122" y="663"/>
      <point x="252" y="760"/>
      <point x="375" y="760" type="curve" smooth="yes"/>
      <point x="483" y="760"/>
      <point x="583" y="687"/>
      <point x="583" y="604" type="curve" smooth="yes"/>
      <point x="583" y="558"/>
      <point x="555" y="519"/>
      <point x="507" y="519" type="curve" smooth="yes"/>
      <point x="473" y="519"/>
      <point x="437" y="543"/>
      <point x="437" y="590" type="curve" smooth="yes"/>
      <point x="437" y="634"/>
      <point x="475" y="660"/>
      <point x="511" y="660" type="curve" smooth="yes"/>
      <point x="549" y="660"/>
      <point x="572" y="635"/>
      <point x="579" y="612" type="curve"/>
      <point x="573" y="688"/>
      <point x="484" y="755"/>
      <point x="383" y="755" type="curve" smooth="yes"/>
      <point x="277" y="755"/>
      <point x="220" y="692"/>
    </contour>
  </outline>
</glyph>
<glyph name="ampersand" format="2">
  <advance width="6472"/>
  <unicode hex="0026"/>
  <outline>
    <contour>
      <point x="2336" y="-8" type="curve" smooth="yes"/>
      <point x="4272" y="-8"/>
      <point x="6312" y="1808"/>
      <point x="6312" y="2888" type="curve" smooth="yes"/>
      <point x="6312" y="3016" type="line"/>
      <point x="6248" y="2720"/>
      <point x="6000" y="2520"/>
      <point x="5696" y="2520" type="curve" smooth="yes"/>
      <point x="5344" y="2520"/>
      <point x="5136" y="2808"/>
      <point x="5136" y="3056" type="curve" smooth="yes"/>
      <point x="5136" y="3344"/>
      <point x="5384" y="3592"/>
      <point x="5712" y="3592" type="curve" smooth="yes"/>
      <point x="6112" y="3592"/>
      <point x="6344" y="3280"/>
      <point x="6344" y="2928" type="curve" smooth="yes"/>
      <point x="6344" y="1808"/>
      <point x="4304" y="-80"/>
      <point x="2024" y="-80" type="curve" smooth="yes"/>
      <point x="896" y="-80"/>
      <point x="160" y="376"/>
      <point x="160" y="1264" type="curve" smooth="yes"/>
      <point x="160" y="3328"/>
      <point x="4248" y="2880"/>
      <point x="4248" y="5184" type="curve" smooth="yes"/>
      <point x="4248" y="5520"/>
      <point x="4096" y="6064"/>
      <point x="3728" y="6064" type="curve" smooth="yes"/>
      <point x="3120" y="6064"/>
      <point x="2856" y="5464"/>
      <point x="2856" y="4960" type="curve" smooth="yes"/>
      <point x="2856" y="4680"/>
      <point x="2952" y="4304"/>
      <point x="3184" y="3760" type="curve" smooth="yes"/>
      <point x="4480" y="760" type="line" smooth="yes"/>
      <point x="4608" y="432"/>
      <point x="4760" y="40"/>
      <point x="5080" y="40" type="curve" smooth="yes"/>
      <point x="5408" y="40"/>
      <point x="5712" y="248"/>
      <point x="5848" y="568" type="curve"/>
      <point x="5864" y="560" type="line"/>
      <point x="5712" y="208"/>
      <point x="5320" y="-80"/>
      <point x="4656" y="-80" type="curve" smooth="yes"/>
      <point x="4072" y="-80"/>
      <point x="3680" y="152"/>
      <point x="3384" y="776" type="curve" smooth="yes"/>
      <point x="2080" y="3760" type="line" smooth="yes"/>
      <point x="1928" y="4096"/>
      <point x="1856" y="4384"/>
      <point x="1856" y="4664" type="curve" smooth="yes"/>
      <point x="1856" y="5464"/>
      <point x="2664" y="6080"/>
      <point x="3752" y="6080" type="curve" smooth="yes"/>
      <point x="4448" y="6080"/>
      <point x="5160" y="5816"/>
      <point x="5160" y="5160" type="curve" smooth="yes"/>
      <point x="5160" y="3416"/>
      <point x="1200" y="4008"/>
      <point x="1200" y="1248" type="curve" smooth="yes"/>
      <point x="1200" y="784"/>
      <point x="1536" y="-8"/>
    </contour>
  </outline>
</glyph>
<glyph name="parenleft" format="2">
  <advance width="2928"/>
  <unicode hex="0028"/>
  <outline>
    <contour>
      <point x="2208" y="-1344" type="curve"/>
      <point x="2208" y="-1360" type="line"/>
      <point x="1304" y="-960"/>
      <point x="664" y="96"/>
      <point x="664" y="1480" type="curve" smooth="yes"/>
      <point x="664" y="3824"/>
      <point x="2352" y="5760"/>
      <point x="3896" y="6400" type="curve"/>
      <point x="3912" y="6384" type="line"/>
      <point x="2680" y="5680"/>
      <point x="1536" y="2952"/>
      <point x="1536" y="1048" type="curve" smooth="yes"/>
      <point x="1536" y="-232"/>
      <point x="1712" y="-848"/>
    </contour>
  </outline>
</glyph>
<glyph name="plus" format="2">
  <advance width="4240"/>
  <unicode hex="002B"/>
  <outline>
    <contour>
      <point x="1992" y="880" type="line"/>
      <point x="2752" y="4160" type="line"/>
      <point x="2768" y="4160" type="line"/>
      <point x="2008" y="880" type="line"/>
    </contour>
    <contour>
      <point x="744" y="2536" type="line"/>
      <point x="4024" y="2536" type="line"/>
      <point x="4024" y="2520" type="line"/>
      <point x="744" y="2520" type="line"/>
    </contour>
  </outline>
</glyph>
<glyph name="comma" format="2">
  <advance width="1912"/>
  <unicode hex="002C"/>
  <outline>
    <contour>
      <point x="128" y="472" type="curve" smooth="yes"/>
      <point x="128" y="784"/>
      <point x="408" y="1056"/>
      <point x="760" y="1056" type="curve" smooth="yes"/>
      <point x="1120" y="1056"/>
      <point x="1392" y="824"/>
      <point x="1392" y="336" type="curve" smooth="yes"/>
      <point x="1392" y="-496"/>
      <point x="528" y="-1248"/>
      <point x="-288" y="-1248" type="curve"/>
      <point x="-288" y="-1232" type="line"/>
      <point x="480" y="-1232"/>
      <point x="1448" y="-488"/>
      <point x="1376" y="448" type="curve"/>
      <point x="1352" y="168"/>
      <point x="1088" y="-80"/>
      <point x="712" y="-80" type="curve" smooth="yes"/>
      <point x="320" y="-80"/>
      <point x="128" y="184"/>
    </contour>
  </outline>
</glyph>
<glyph name="period" format="2">
  <advance width="1792"/>
  <unicode hex="002E"/>
  <outline>
    <contour>
      <point x="128" y="496" type="curve" smooth="yes"/>
      <point x="128" y="816"/>
      <point x="384" y="1072"/>
      <point x="704" y="1072" type="curve" smooth="yes"/>
      <point x="1024" y="1072"/>
      <point x="1280" y="816"/>
      <point x="1280" y="496" type="curve" smooth="yes"/>
      <point x="1280" y="176"/>
      <point x="1024" y="-80"/>
      <point x="704" y="-80" type="curve" smooth="yes"/>
      <point x="384" y="-80"/>
      <point x="128" y="176"/>
    </contour>
  </outline>
</glyph>
<glyph name="zero" format="2">
  <advance width="636"/>
  <unicode hex="0030"/>
  <outline>
    <contour>
      <point x="450" y="760" type="curve" smooth="yes"/>
      <point x="582" y="760"/>
      <point x="659" y="653"/>
      <point x="659" y="532" type="curve" smooth="yes"/>
      <point x="659" y="243"/>
      <point x="475" y="-10"/>
      <point x="280" y="-10" type="curve" smooth="yes"/>
      <point x="148" y="-10"/>
      <point x="71" y="97"/>
      <point x="71" y="218" type="curve" smooth="yes"/>
      <point x="71" y="507"/>
      <point x="255" y="760"/>
    </contour>
    <contour>
      <point x="450" y="758" type="curve" smooth="yes"/>
      <point x="299" y="758"/>
      <point x="189" y="351"/>
      <point x="189" y="166" type="curve" smooth="yes"/>
      <point x="189" y="84"/>
      <point x="203" y="-8"/>
      <point x="280" y="-8" type="curve" smooth="yes"/>
      <point x="431" y="-8"/>
      <point x="541" y="403"/>
      <point x="541" y="584" type="curve" smooth="yes"/>
      <point x="541" y="666"/>
      <point x="527" y="758"/>
    </contour>
  </outline>
</glyph>
<glyph name="three" format="2">
  <advance width="4344"/>
  <unicode hex="0033"/>
  <outline>
    <contour>
      <point x="1152" y="4864" type="curve" smooth="yes"/>
      <point x="1152" y="5472"/>
      <point x="1864" y="6072"/>
      <point x="2840" y="6072" type="curve" smooth="yes"/>
      <point x="3632" y="6072"/>
      <point x="4424" y="5832"/>
      <point x="4424" y="4936" type="curve" smooth="yes"/>
      <point x="4424" y="4088"/>
      <point x="3640" y="3248"/>
      <point x="1792" y="3248" type="curve"/>
      <point x="1792" y="3264" type="line"/>
      <point x="3064" y="3264"/>
      <point x="3440" y="4376"/>
      <point x="3440" y="5016" type="curve" smooth="yes"/>
      <point x="3440" y="5672"/>
      <point x="3240" y="6024"/>
      <point x="2640" y="6024" type="curve" smooth="yes"/>
      <point x="1984" y="6024"/>
      <point x="1312" y="5592"/>
      <point x="1200" y="5056" type="curve"/>
      <point x="1256" y="5168"/>
      <point x="1448" y="5336"/>
      <point x="1704" y="5336" type="curve" smooth="yes"/>
      <point x="1992" y="5336"/>
      <point x="2224" y="5128"/>
      <point x="2224" y="4816" type="curve" smooth="yes"/>
      <point x="2224" y="4464"/>
      <point x="1936" y="4288"/>
      <point x="1688" y="4288" type="curve" smooth="yes"/>
      <point x="1400" y="4288"/>
      <point x="1152" y="4504"/>
    </contour>
    <contour>
      <point x="40" y="1160" type="curve" smooth="yes"/>
      <point x="40" y="1536"/>
      <point x="272" y="1768"/>
      <point x="600" y="1768" type="curve" smooth="yes"/>
      <point x="888" y="1768"/>
      <point x="1112" y="1560"/>
      <point x="1112" y="1240" type="curve" smooth="yes"/>
      <point x="1112" y="936"/>
      <point x="856" y="720"/>
      <point x="576" y="720" type="curve" smooth="yes"/>
      <point x="296" y="720"/>
      <point x="112" y="912"/>
      <point x="64" y="1088" type="curve"/>
      <point x="96" y="472"/>
      <point x="704" y="-56"/>
      <point x="1640" y="-56" type="curve" smooth="yes"/>
      <point x="2592" y="-56"/>
      <point x="3024" y="1040"/>
      <point x="3024" y="1920" type="curve" smooth="yes"/>
      <point x="3024" y="2576"/>
      <point x="2824" y="3248"/>
      <point x="1792" y="3248" type="curve"/>
      <point x="1792" y="3264" type="line"/>
      <point x="3480" y="3264"/>
      <point x="4008" y="2736"/>
      <point x="4008" y="1840" type="curve" smooth="yes"/>
      <point x="4008" y="752"/>
      <point x="2880" y="-80"/>
      <point x="1720" y="-80" type="curve" smooth="yes"/>
      <point x="568" y="-80"/>
      <point x="40" y="568"/>
    </contour>
  </outline>
</glyph>
<glyph name="four" format="2">
  <advance width="621"/>
  <unicode hex="0034"/>
  <outline>
    <contour>
      <point x="528" y="2" type="line"/>
      <point x="528" y="0" type="line"/>
      <point x="239" y="0" type="line"/>
      <point x="239" y="2" type="line"/>
    </contour>
    <contour>
      <point x="611" y="750" type="line"/>
      <point x="443" y="0" type="line"/>
      <point x="324" y="0" type="line"/>
      <point x="481" y="720" type="line"/>
      <point x="43" y="216" type="line"/>
      <point x="603" y="216" type="line"/>
      <point x="603" y="214" type="line"/>
      <point x="39" y="214" type="line"/>
      <point x="505" y="750" type="line"/>
    </contour>
  </outline>
</glyph>
<glyph name="six" format="2">
  <advance width="2394"/>
  <unicode hex="0036"/>
  <outline>
    <contour>
      <point x="1782" y="1320" type="curve" smooth="yes"/>
      <point x="1782" y="1695"/>
      <point x="1706" y="1949"/>
      <point x="1500" y="1949" type="curve" smooth="yes"/>
      <point x="942" y="1949"/>
      <point x="720" y="1042"/>
      <point x="720" y="604" type="curve"/>
      <point x="712" y="604" type="line"/>
      <point x="712" y="1053"/>
      <point x="935" y="2013"/>
      <point x="1606" y="2013" type="curve" smooth="yes"/>
      <point x="1958" y="2013"/>
      <point x="2314" y="1802"/>
      <point x="2314" y="1228" type="curve" smooth="yes"/>
      <point x="2314" y="573"/>
      <point x="1679" y="-40"/>
      <point x="1041" y="-40" type="curve" smooth="yes"/>
      <point x="566" y="-40"/>
      <point x="204" y="246"/>
      <point x="204" y="902" type="curve" smooth="yes"/>
      <point x="204" y="1815"/>
      <point x="1195" y="3112"/>
      <point x="2416" y="3112" type="curve"/>
      <point x="2416" y="3104" type="line"/>
      <point x="1427" y="3104"/>
      <point x="722" y="1749"/>
      <point x="722" y="727" type="curve"/>
      <point x="720" y="604" type="line"/>
      <point x="720" y="270"/>
      <point x="819" y="-32"/>
      <point x="1057" y="-32" type="curve" smooth="yes"/>
      <point x="1463" y="-32"/>
      <point x="1782" y="832"/>
    </contour>
  </outline>
</glyph>
<glyph name="seven" format="2">
  <advance width="4200"/>
  <unicode hex="0037"/>
  <outline>
    <contour>
      <point x="1168" y="592" type="curve" smooth="yes"/>
      <point x="1168" y="1256"/>
      <point x="2128" y="2264"/>
      <point x="2792" y="3128" type="curve" smooth="yes"/>
      <point x="3200" y="3648"/>
      <point x="3760" y="4416"/>
      <point x="4248" y="5048" type="curve"/>
      <point x="1064" y="5048" type="line"/>
      <point x="928" y="4448" type="line"/>
      <point x="912" y="4448" type="line"/>
      <point x="1248" y="6000" type="line"/>
      <point x="5000" y="6000" type="line"/>
      <point x="5000" y="6000"/>
      <point x="3624" y="4184"/>
      <point x="2872" y="3184" type="curve" smooth="yes"/>
      <point x="2328" y="2448"/>
      <point x="1800" y="1864"/>
      <point x="1800" y="1504" type="curve" smooth="yes"/>
      <point x="1800" y="1096"/>
      <point x="2384" y="1120"/>
      <point x="2384" y="544" type="curve" smooth="yes"/>
      <point x="2384" y="200"/>
      <point x="2136" y="-80"/>
      <point x="1736" y="-80" type="curve" smooth="yes"/>
      <point x="1416" y="-80"/>
      <point x="1168" y="152"/>
    </contour>
  </outline>
</glyph>
<glyph name="eight" format="2">
  <advance width="2375"/>
  <unicode hex="0038"/>
  <outline>
    <contour>
      <point x="1014" y="2088" type="curve" smooth="yes"/>
      <point x="1014" y="1836"/>
      <point x="1065" y="1565"/>
      <point x="1298" y="1565" type="curve" smooth="yes"/>
      <point x="1632" y="1565"/>
      <point x="1854" y="2072"/>
      <point x="1854" y="2518" type="curve" smooth="yes"/>
      <point x="1854" y="2760"/>
      <point x="1804" y="3104"/>
      <point x="1566" y="3104" type="curve" smooth="yes"/>
      <point x="1253" y="3104"/>
      <point x="1014" y="2534"/>
    </contour>
    <contour>
      <point x="492" y="2150" type="curve" smooth="yes"/>
      <point x="492" y="2642"/>
      <point x="960" y="3112"/>
      <point x="1568" y="3112" type="curve" smooth="yes"/>
      <point x="2094" y="3112"/>
      <point x="2375" y="2766"/>
      <point x="2375" y="2438" type="curve" smooth="yes"/>
      <point x="2375" y="1936"/>
      <point x="1879" y="1557"/>
      <point x="1301" y="1557" type="curve" smooth="yes"/>
      <point x="805" y="1557"/>
      <point x="492" y="1822"/>
    </contour>
    <contour>
      <point x="634" y="574" type="curve" smooth="yes"/>
      <point x="634" y="240"/>
      <point x="751" y="-32"/>
      <point x="1024" y="-32" type="curve" smooth="yes"/>
      <point x="1399" y="-32"/>
      <point x="1628" y="538"/>
      <point x="1628" y="984" type="curve" smooth="yes"/>
      <point x="1628" y="1318"/>
      <point x="1513" y="1557"/>
      <point x="1240" y="1557" type="curve" smooth="yes"/>
      <point x="865" y="1557"/>
      <point x="634" y="1020"/>
    </contour>
    <contour>
      <point x="122" y="614" type="curve" smooth="yes"/>
      <point x="122" y="1106"/>
      <point x="488" y="1565"/>
      <point x="1219" y="1565" type="curve" smooth="yes"/>
      <point x="1827" y="1565"/>
      <point x="2150" y="1352"/>
      <point x="2150" y="942" type="curve" smooth="yes"/>
      <point x="2150" y="450"/>
      <point x="1786" y="-40"/>
      <point x="1055" y="-40" type="curve" smooth="yes"/>
      <point x="447" y="-40"/>
      <point x="122" y="204"/>
    </contour>
  </outline>
</glyph>
<glyph name="question" format="2">
  <advance width="4512"/>
  <unicode hex="003F"/>
  <outline>
    <contour>
      <point x="2312" y="2776" type="curve"/>
      <point x="2104" y="1784" type="line"/>
      <point x="2088" y="1784" type="line"/>
      <point x="2304" y="2784" type="line"/>
      <point x="3240" y="3032"/>
      <point x="3888" y="3992"/>
      <point x="3888" y="4944" type="curve" smooth="yes"/>
      <point x="3888" y="5504"/>
      <point x="3736" y="6056"/>
      <point x="3088" y="6056" type="curve" smooth="yes"/>
      <point x="2128" y="6056"/>
      <point x="1400" y="5376"/>
      <point x="1360" y="4800" type="curve"/>
      <point x="1400" y="4968"/>
      <point x="1600" y="5152"/>
      <point x="1864" y="5152" type="curve" smooth="yes"/>
      <point x="2128" y="5152"/>
      <point x="2384" y="4960"/>
      <point x="2384" y="4648" type="curve" smooth="yes"/>
      <point x="2384" y="4296"/>
      <point x="2096" y="4120"/>
      <point x="1848" y="4120" type="curve" smooth="yes"/>
      <point x="1544" y="4120"/>
      <point x="1328" y="4336"/>
      <point x="1328" y="4696" type="curve" smooth="yes"/>
      <point x="1328" y="5352"/>
      <point x="2112" y="6080"/>
      <point x="3168" y="6080" type="curve" smooth="yes"/>
      <point x="4056" y="6080"/>
      <point x="4872" y="5696"/>
      <point x="4872" y="4736" type="curve" smooth="yes"/>
      <point x="4872" y="3576"/>
      <point x="3552" y="2840"/>
    </contour>
    <component base="period" xOffset="1192"/>
  </outline>
</glyph>
<glyph name="at" format="2">
  <advance width="1010"/>
  <unicode hex="0040"/>
  <outline>
    <contour>
      <point x="600" y="351" type="curve" smooth="yes"/>
      <point x="600" y="205"/>
      <point x="524" y="70"/>
      <point x="418" y="70" type="curve" smooth="yes"/>
      <point x="337" y="70"/>
      <point x="268" y="126"/>
      <point x="268" y="230" type="curve" smooth="yes"/>
      <point x="268" y="380"/>
      <point x="381" y="529"/>
      <point x="500" y="529" type="curve" smooth="yes"/>
      <point x="585" y="529"/>
      <point x="600" y="433"/>
    </contour>
    <contour>
      <point x="598" y="346" type="curve" smooth="yes"/>
      <point x="598" y="388"/>
      <point x="595" y="512"/>
      <point x="522" y="512" type="curve" smooth="yes"/>
      <point x="456" y="512"/>
      <point x="393" y="348"/>
      <point x="393" y="224" type="curve" smooth="yes"/>
      <point x="393" y="157"/>
      <point x="408" y="87"/>
      <point x="448" y="87" type="curve" smooth="yes"/>
      <point x="525" y="87"/>
      <point x="598" y="214"/>
    </contour>
    <contour>
      <point x="576" y="210" type="curve" smooth="yes"/>
      <point x="648" y="520" type="line"/>
      <point x="762" y="520" type="line"/>
      <point x="689" y="207" type="line" smooth="yes"/>
      <point x="684" y="187"/>
      <point x="645" y="78"/>
      <point x="716" y="78" type="curve" smooth="yes"/>
      <point x="853" y="78"/>
      <point x="953" y="236"/>
      <point x="953" y="401" type="curve" smooth="yes"/>
      <point x="953" y="582"/>
      <point x="837" y="788"/>
      <point x="585" y="788" type="curve" smooth="yes"/>
      <point x="294" y="788"/>
      <point x="57" y="523"/>
      <point x="57" y="211" type="curve" smooth="yes"/>
      <point x="57" y="-102"/>
      <point x="238" y="-212"/>
      <point x="419" y="-212" type="curve" smooth="yes"/>
      <point x="581" y="-212"/>
      <point x="700" y="-160"/>
      <point x="783" y="-63" type="curve"/>
      <point x="785" y="-64" type="line"/>
      <point x="701" y="-162"/>
      <point x="582" y="-214"/>
      <point x="419" y="-214" type="curve" smooth="yes"/>
      <point x="236" y="-214"/>
      <point x="55" y="-104"/>
      <point x="55" y="211" type="curve" smooth="yes"/>
      <point x="55" y="524"/>
      <point x="292" y="790"/>
      <point x="585" y="790" type="curve" smooth="yes"/>
      <point x="838" y="790"/>
      <point x="955" y="584"/>
      <point x="955" y="401" type="curve" smooth="yes"/>
      <point x="955" y="239"/>
      <point x="862" y="68"/>
      <point x="685" y="68" type="curve" smooth="yes"/>
      <point x="584" y="68"/>
      <point x="562" y="148"/>
    </contour>
  </outline>
</glyph>
<glyph name="A" format="2">
  <advance width="743"/>
  <unicode hex="0041"/>
  <outline>
    <contour>
      <point x="-46" y="2" type="line"/>
      <point x="174" y="2" type="line"/>
      <point x="174" y="0" type="line"/>
      <point x="-46" y="0" type="line"/>
    </contour>
    <contour>
      <point x="360" y="2" type="line"/>
      <point x="674" y="2" type="line"/>
      <point x="674" y="0" type="line"/>
      <point x="360" y="0" type="line"/>
    </contour>
    <contour>
      <point x="189" y="246" type="line"/>
      <point x="514" y="246" type="line"/>
      <point x="514" y="244" type="line"/>
      <point x="189" y="244" type="line"/>
    </contour>
    <contour>
      <point x="411" y="627" type="line"/>
      <point x="49" y="0" type="line"/>
      <point x="47" y="0" type="line"/>
      <point x="487" y="765" type="line"/>
      <point x="509" y="765" type="line"/>
      <point x="604" y="0" type="line"/>
      <point x="475" y="0" type="line"/>
    </contour>
  </outline>
</glyph>
<glyph name="B" format="2">
  <advance width="647"/>
  <unicode hex="0042"/>
  <outline>
    <contour>
      <point x="276" y="0" type="curve" smooth="yes"/>
      <point x="-46" y="0" type="line"/>
      <point x="-46" y="2" type="line"/>
      <point x="276" y="2" type="line" smooth="yes"/>
      <point x="387" y="2"/>
      <point x="464" y="127"/>
      <point x="464" y="260" type="curve" smooth="yes"/>
      <point x="464" y="349"/>
      <point x="420" y="384"/>
      <point x="348" y="384" type="curve" smooth="yes"/>
      <point x="226" y="384" type="line"/>
      <point x="226" y="386" type="line"/>
      <point x="362" y="386" type="line" smooth="yes"/>
      <point x="503" y="386"/>
      <point x="598" y="342"/>
      <point x="598" y="236" type="curve" smooth="yes"/>
      <point x="598" y="86"/>
      <point x="449" y="0"/>
    </contour>
    <contour>
      <point x="219" y="750" type="line"/>
      <point x="338" y="750" type="line"/>
      <point x="163" y="0" type="line"/>
      <point x="44" y="0" type="line"/>
    </contour>
    <contour>
      <point x="346" y="384" type="curve" smooth="yes"/>
      <point x="226" y="384" type="line"/>
      <point x="226" y="386" type="line"/>
      <point x="346" y="386" type="line" smooth="yes"/>
      <point x="422" y="386"/>
      <point x="529" y="474"/>
      <point x="529" y="619" type="curve" smooth="yes"/>
      <point x="529" y="686"/>
      <point x="498" y="748"/>
      <point x="420" y="748" type="curve" smooth="yes"/>
      <point x="129" y="748" type="line"/>
      <point x="129" y="750" type="line"/>
      <point x="421" y="750" type="line" smooth="yes"/>
      <point x="586" y="750"/>
      <point x="653" y="705"/>
      <point x="653" y="601" type="curve" smooth="yes"/>
      <point x="653" y="477"/>
      <point x="507" y="384"/>
    </contour>
  </outline>
</glyph>
<glyph name="C" format="2">
  <advance width="5400"/>
  <unicode hex="0043"/>
  <outline>
    <contour>
      <point x="2552" y="-80" type="curve" smooth="yes"/>
      <point x="1280" y="-80"/>
      <point x="432" y="736"/>
      <point x="432" y="2040" type="curve" smooth="yes"/>
      <point x="432" y="4224"/>
      <point x="2048" y="6080"/>
      <point x="3944" y="6080" type="curve" smooth="yes"/>
      <point x="4920" y="6080"/>
      <point x="5608" y="5456"/>
      <point x="5536" y="4312" type="curve"/>
      <point x="5520" y="4312" type="line"/>
      <point x="5584" y="5472"/>
      <point x="4888" y="6040"/>
      <point x="4072" y="6040" type="curve" smooth="yes"/>
      <point x="2408" y="6040"/>
      <point x="1488" y="3304"/>
      <point x="1488" y="1528" type="curve" smooth="yes"/>
      <point x="1488" y="728"/>
      <point x="1832" y="-40"/>
      <point x="2664" y="-40" type="curve" smooth="yes"/>
      <point x="3688" y="-40"/>
      <point x="4584" y="704"/>
      <point x="4984" y="1688" type="curve"/>
      <point x="5000" y="1688" type="line"/>
      <point x="4616" y="704"/>
      <point x="3696" y="-80"/>
    </contour>
    <contour>
      <point x="5520" y="4312" type="line"/>
      <point x="5528" y="4504" type="line"/>
      <point x="5512" y="4888"/>
      <point x="5448" y="5192"/>
      <point x="5264" y="5440" type="curve"/>
      <point x="5912" y="6000" type="line"/>
      <point x="5928" y="6000" type="line"/>
      <point x="5536" y="4312" type="line"/>
    </contour>
    <contour>
      <point x="4984" y="1688" type="line"/>
      <point x="5000" y="1688" type="line"/>
      <point x="4560" y="0" type="line"/>
      <point x="4544" y="0" type="line"/>
      <point x="4184" y="544" type="line"/>
      <point x="4416" y="768"/>
      <point x="4640" y="992"/>
      <point x="4872" y="1432" type="curve"/>
    </contour>
  </outline>
</glyph>
<glyph name="D" format="2">
  <advance width="5752"/>
  <unicode hex="0044"/>
  <outline>
    <contour>
      <point x="1792" y="6000" type="line"/>
      <point x="2744" y="6000" type="line"/>
      <point x="1384" y="0" type="line"/>
      <point x="432" y="0" type="line"/>
    </contour>
    <contour>
      <point x="2184" y="0" type="curve" smooth="yes"/>
      <point x="-288" y="0" type="line"/>
      <point x="-288" y="16" type="line"/>
      <point x="2120" y="16" type="line" smooth="yes"/>
      <point x="3784" y="16"/>
      <point x="4688" y="2712"/>
      <point x="4688" y="4328" type="curve" smooth="yes"/>
      <point x="4688" y="5064"/>
      <point x="4408" y="5984"/>
      <point x="3464" y="5984" type="curve" smooth="yes"/>
      <point x="992" y="5984" type="line"/>
      <point x="992" y="6000" type="line"/>
      <point x="3512" y="6000" type="line" smooth="yes"/>
      <point x="4816" y="6000"/>
      <point x="5760" y="5280"/>
      <point x="5760" y="3928" type="curve" smooth="yes"/>
      <point x="5760" y="1792"/>
      <point x="4176" y="0"/>
    </contour>
  </outline>
</glyph>
<glyph name="E" format="2">
  <advance width="4720"/>
  <unicode hex="0045"/>
  <outline>
    <contour>
      <point x="984" y="6000" type="line"/>
      <point x="5328" y="6000" type="line"/>
      <point x="4944" y="4360" type="line"/>
      <point x="4928" y="4360" type="line"/>
      <point x="5080" y="5216"/>
      <point x="4752" y="5984"/>
      <point x="3816" y="5984" type="curve" smooth="yes"/>
      <point x="984" y="5984" type="line"/>
    </contour>
    <contour>
      <point x="1704" y="6000" type="line"/>
      <point x="2656" y="6000" type="line"/>
      <point x="1264" y="0" type="line"/>
      <point x="312" y="0" type="line"/>
    </contour>
    <contour>
      <point x="2384" y="3096" type="curve" smooth="yes"/>
      <point x="1832" y="3096" type="line"/>
      <point x="1832" y="3112" type="line"/>
      <point x="2384" y="3112" type="line" smooth="yes"/>
      <point x="2840" y="3112"/>
      <point x="3360" y="3456"/>
      <point x="3528" y="3992" type="curve"/>
      <point x="3544" y="3992" type="line"/>
      <point x="3136" y="2176" type="line"/>
      <point x="3120" y="2176" type="line"/>
      <point x="3192" y="2712"/>
      <point x="2840" y="3096"/>
    </contour>
    <contour>
      <point x="4016" y="0" type="line"/>
      <point x="-368" y="0" type="line"/>
      <point x="-368" y="16" type="line"/>
      <point x="2424" y="16" type="line" smooth="yes"/>
      <point x="3520" y="16"/>
      <point x="4136" y="784"/>
      <point x="4416" y="1800" type="curve"/>
      <point x="4432" y="1800" type="line"/>
    </contour>
  </outline>
</glyph>
<glyph name="F" format="2">
  <advance width="4544"/>
  <unicode hex="0046"/>
  <outline>
    <contour>
      <point x="2232" y="2976" type="curve" smooth="yes"/>
      <point x="1824" y="2976" type="line"/>
      <point x="1824" y="2992" type="line"/>
      <point x="2232" y="2992" type="line" smooth="yes"/>
      <point x="2888" y="2992"/>
      <point x="3392" y="3312"/>
      <point x="3544" y="3848" type="curve"/>
      <point x="3560" y="3848" type="line"/>
      <point x="3152" y="2080" type="line"/>
      <point x="3136" y="2080" type="line"/>
      <point x="3208" y="2616"/>
      <point x="2896" y="2976"/>
    </contour>
    <contour>
      <point x="-368" y="16" type="line"/>
      <point x="2064" y="16" type="line"/>
      <point x="2064" y="0" type="line"/>
      <point x="-368" y="0" type="line"/>
    </contour>
    <contour>
      <point x="1704" y="6000" type="line"/>
      <point x="2656" y="6000" type="line"/>
      <point x="1264" y="0" type="line"/>
      <point x="312" y="0" type="line"/>
    </contour>
    <contour>
      <point x="984" y="6000" type="line"/>
      <point x="5232" y="6000" type="line"/>
      <point x="4848" y="4360" type="line"/>
      <point x="4832" y="4360" type="line"/>
      <point x="4984" y="5216"/>
      <point x="4672" y="5984"/>
      <point x="3736" y="5984" type="curve" smooth="yes"/>
      <point x="984" y="5984" type="line"/>
    </contour>
  </outline>
</glyph>
<glyph name="G" format="2">
  <advance width="5984"/>
  <unicode hex="0047"/>
  <outline>
    <contour>
      <point x="4328" y="2280" type="line"/>
      <point x="5352" y="2280" type="line"/>
      <point x="5104" y="1320" type="line"/>
      <point x="4744" y="816"/>
      <point x="3856" y="-80"/>
      <point x="2552" y="-80" type="curve" smooth="yes"/>
      <point x="1296" y="-80"/>
      <point x="432" y="704"/>
      <point x="432" y="2040" type="curve" smooth="yes"/>
      <point x="432" y="4256"/>
      <point x="2112" y="6080"/>
      <point x="3992" y="6080" type="curve" smooth="yes"/>
      <point x="4968" y="6080"/>
      <point x="5680" y="5456"/>
      <point x="5600" y="4312" type="curve"/>
      <point x="5584" y="4312" type="line"/>
      <point x="5656" y="5440"/>
      <point x="4960" y="6032"/>
      <point x="4120" y="6032" type="curve" smooth="yes"/>
      <point x="2440" y="6032"/>
      <point x="1488" y="3368"/>
      <point x="1488" y="1560" type="curve" smooth="yes"/>
      <point x="1488" y="744"/>
      <point x="1720" y="-64"/>
      <point x="2504" y="-64" type="curve" smooth="yes"/>
      <point x="3384" y="-64"/>
      <point x="3840" y="760"/>
      <point x="3992" y="1000" type="curve"/>
    </contour>
    <contour>
      <point x="3584" y="2288" type="line"/>
      <point x="5904" y="2288" type="line"/>
      <point x="5904" y="2272" type="line"/>
      <point x="3584" y="2272" type="line"/>
    </contour>
    <contour>
      <point x="5976" y="6000" type="line"/>
      <point x="5992" y="6000" type="line"/>
      <point x="5600" y="4312" type="line"/>
      <point x="5584" y="4312" type="line"/>
      <point x="5592" y="4512" type="line"/>
      <point x="5592" y="4824"/>
      <point x="5504" y="5184"/>
      <point x="5304" y="5464" type="curve"/>
    </contour>
  </outline>
</glyph>
<glyph name="H" format="2">
  <advance width="5936"/>
  <unicode hex="0048"/>
  <outline>
    <contour>
      <point x="3048" y="16" type="line"/>
      <point x="5384" y="16" type="line"/>
      <point x="5384" y="0" type="line"/>
      <point x="3048" y="0" type="line"/>
    </contour>
    <contour>
      <point x="4368" y="6000" type="line"/>
      <point x="6704" y="6000" type="line"/>
      <point x="6704" y="5984" type="line"/>
      <point x="4368" y="5984" type="line"/>
    </contour>
    <contour>
      <point x="5072" y="6000" type="line"/>
      <point x="6024" y="6000" type="line"/>
      <point x="4664" y="0" type="line"/>
      <point x="3712" y="0" type="line"/>
    </contour>
    <contour>
      <point x="-328" y="16" type="line"/>
      <point x="2008" y="16" type="line"/>
      <point x="2008" y="0" type="line"/>
      <point x="-328" y="0" type="line"/>
    </contour>
    <contour>
      <point x="992" y="6000" type="line"/>
      <point x="3328" y="6000" type="line"/>
      <point x="3328" y="5984" type="line"/>
      <point x="992" y="5984" type="line"/>
    </contour>
    <contour>
      <point x="1712" y="6000" type="line"/>
      <point x="2664" y="6000" type="line"/>
      <point x="1304" y="0" type="line"/>
      <point x="352" y="0" type="line"/>
    </contour>
    <contour>
      <point x="1696" y="2968" type="line"/>
      <point x="4576" y="2968" type="line"/>
      <point x="4576" y="2952" type="line"/>
      <point x="1696" y="2952" type="line"/>
    </contour>
  </outline>
</glyph>
<glyph name="I" format="2">
  <advance width="2976"/>
  <unicode hex="0049"/>
  <outline>
    <contour>
      <point x="-328" y="16" type="line"/>
      <point x="2424" y="16" type="line"/>
      <point x="2424" y="0" type="line"/>
      <point x="-328" y="0" type="line"/>
    </contour>
    <contour>
      <point x="992" y="6000" type="line"/>
      <point x="3744" y="6000" type="line"/>
      <point x="3744" y="5984" type="line"/>
      <point x="992" y="5984" type="line"/>
    </contour>
    <contour>
      <point x="1912" y="6000" type="line"/>
      <point x="2864" y="6000" type="line"/>
      <point x="1504" y="0" type="line"/>
      <point x="552" y="0" type="line"/>
    </contour>
  </outline>
</glyph>
<glyph name="J" format="2">
  <advance width="461"/>
  <unicode hex="004A"/>
  <outline>
    <contour>
      <point x="203" y="750" type="line"/>
      <point x="557" y="750" type="line"/>
      <point x="557" y="748" type="line"/>
      <point x="203" y="748" type="line"/>
    </contour>
    <contour>
      <point x="-28" y="84" type="curve"/>
      <point x="-25" y="35"/>
      <point x="19" y="-27"/>
      <point x="89" y="-27" type="curve" smooth="yes"/>
      <point x="150" y="-27"/>
      <point x="179" y="50"/>
      <point x="211" y="190" type="curve" smooth="yes"/>
      <point x="338" y="750" type="line"/>
      <point x="457" y="750" type="line"/>
      <point x="326" y="169" type="line"/>
      <point x="276" y="89"/>
      <point x="204" y="-30"/>
      <point x="95" y="-30" type="curve" smooth="yes"/>
      <point x="16" y="-30"/>
      <point x="-31" y="35"/>
      <point x="-31" y="93" type="curve" smooth="yes"/>
      <point x="-31" y="139"/>
      <point x="0" y="170"/>
      <point x="40" y="170" type="curve" smooth="yes"/>
      <point x="73" y="170"/>
      <point x="108" y="146"/>
      <point x="108" y="99" type="curve" smooth="yes"/>
      <point x="108" y="55"/>
      <point x="75" y="29"/>
      <point x="41" y="29" type="curve" smooth="yes"/>
      <point x="6" y="29"/>
      <point x="-20" y="52"/>
    </contour>
  </outline>
</glyph>
<glyph name="K" format="2">
  <advance width="706"/>
  <unicode hex="004B"/>
  <outline>
    <contour>
      <point x="-41" y="2" type="line"/>
      <point x="251" y="2" type="line"/>
      <point x="251" y="0" type="line"/>
      <point x="-41" y="0" type="line"/>
    </contour>
    <contour>
      <point x="124" y="750" type="line"/>
      <point x="420" y="750" type="line"/>
      <point x="420" y="748" type="line"/>
      <point x="124" y="748" type="line"/>
    </contour>
    <contour>
      <point x="214" y="750" type="line"/>
      <point x="333" y="750" type="line"/>
      <point x="163" y="0" type="line"/>
      <point x="44" y="0" type="line"/>
    </contour>
    <contour>
      <point x="147" y="217" type="line"/>
      <point x="144" y="217" type="line"/>
      <point x="665" y="750" type="line"/>
      <point x="668" y="750" type="line"/>
    </contour>
    <contour>
      <point x="314" y="2" type="line"/>
      <point x="643" y="2" type="line"/>
      <point x="643" y="0" type="line"/>
      <point x="314" y="0" type="line"/>
    </contour>
    <contour>
      <point x="767" y="748" type="line"/>
      <point x="527" y="748" type="line"/>
      <point x="527" y="750" type="line"/>
      <point x="767" y="750" type="line"/>
    </contour>
    <contour>
      <point x="557" y="0" type="line"/>
      <point x="426" y="0" type="line"/>
      <point x="302" y="378" type="line"/>
      <point x="397" y="470" type="line"/>
    </contour>
  </outline>
</glyph>
<glyph name="L" format="2">
  <advance width="580"/>
  <unicode hex="004C"/>
  <outline>
    <contour>
      <point x="213" y="750" type="line"/>
      <point x="332" y="750" type="line"/>
      <point x="158" y="0" type="line"/>
      <point x="39" y="0" type="line"/>
    </contour>
    <contour>
      <point x="123" y="750" type="line"/>
      <point x="422" y="750" type="line"/>
      <point x="422" y="748" type="line"/>
      <point x="123" y="748" type="line"/>
    </contour>
    <contour>
      <point x="498" y="0" type="line"/>
      <point x="-46" y="0" type="line"/>
      <point x="-46" y="2" type="line"/>
      <point x="295" y="2" type="line" smooth="yes"/>
      <point x="452" y="2"/>
      <point x="513" y="98"/>
      <point x="548" y="225" type="curve"/>
      <point x="550" y="225" type="line"/>
    </contour>
  </outline>
</glyph>
<glyph name="M" format="2">
  <advance width="857"/>
  <unicode hex="004D"/>
  <outline>
    <contour>
      <point x="519" y="2" type="line"/>
      <point x="788" y="2" type="line"/>
      <point x="788" y="0" type="line"/>
      <point x="519" y="0" type="line"/>
    </contour>
    <contour>
      <point x="865" y="748" type="line"/>
      <point x="708" y="0" type="line"/>
      <point x="589" y="0" type="line"/>
      <point x="749" y="750" type="line"/>
      <point x="928" y="750" type="line"/>
      <point x="928" y="748" type="line"/>
    </contour>
    <contour>
      <point x="418" y="163" type="line"/>
      <point x="748" y="750" type="line"/>
      <point x="750" y="750" type="line"/>
      <point x="323" y="-10" type="line"/>
      <point x="320" y="-10" type="line"/>
      <point x="202" y="750" type="line"/>
      <point x="322" y="750" type="line"/>
    </contour>
    <contour>
      <point x="201" y="748" type="line"/>
      <point x="124" y="748" type="line"/>
      <point x="124" y="750" type="line"/>
      <point x="204" y="750" type="line"/>
      <point x="46" y="0" type="line"/>
      <point x="44" y="0" type="line"/>
    </contour>
    <contour>
      <point x="-26" y="2" type="line"/>
      <point x="128" y="2" type="line"/>
      <point x="128" y="0" type="line"/>
      <point x="-26" y="0" type="line"/>
    </contour>
  </outline>
</glyph>
<glyph name="N" format="2">
  <advance width="725"/>
  <unicode hex="004E"/>
  <outline>
    <contour>
      <point x="720" y="750" type="line"/>
      <point x="722" y="750" type="line"/>
      <point x="549" y="-10" type="line"/>
      <point x="544" y="-10" type="line"/>
      <point x="224" y="750" type="line"/>
      <point x="367" y="750" type="line"/>
      <point x="594" y="197" type="line"/>
    </contour>
    <contour>
      <point x="600" y="750" type="line"/>
      <point x="821" y="750" type="line"/>
      <point x="821" y="748" type="line"/>
      <point x="600" y="748" type="line"/>
    </contour>
    <contour>
      <point x="-36" y="2" type="line"/>
      <point x="184" y="2" type="line"/>
      <point x="184" y="0" type="line"/>
      <point x="-36" y="0" type="line"/>
    </contour>
    <contour>
      <point x="224" y="748" type="line"/>
      <point x="124" y="748" type="line"/>
      <point x="124" y="750" type="line"/>
      <point x="227" y="750" type="line"/>
      <point x="60" y="0" type="line"/>
      <point x="58" y="0" type="line"/>
    </contour>
  </outline>
</glyph>
<glyph name="O" format="2">
  <advance width="3004"/>
  <unicode hex="004F"/>
  <outline>
    <contour>
      <point x="1264" y="-40" type="curve" smooth="yes"/>
      <point x="607" y="-40"/>
      <point x="221" y="376"/>
      <point x="221" y="1044" type="curve" smooth="yes"/>
      <point x="221" y="2203"/>
      <point x="1090" y="3112"/>
      <point x="1962" y="3112" type="curve" smooth="yes"/>
      <point x="2579" y="3112"/>
      <point x="3005" y="2696"/>
      <point x="3005" y="2028" type="curve" smooth="yes"/>
      <point x="3005" y="869"/>
      <point x="2178" y="-40"/>
    </contour>
    <contour>
      <point x="1962" y="3104" type="curve" smooth="yes"/>
      <point x="1270" y="3104"/>
      <point x="773" y="1687"/>
      <point x="773" y="737" type="curve" smooth="yes"/>
      <point x="773" y="309"/>
      <point x="889" y="-32"/>
      <point x="1264" y="-32" type="curve" smooth="yes"/>
      <point x="1997" y="-32"/>
      <point x="2452" y="1385"/>
      <point x="2452" y="2335" type="curve" smooth="yes"/>
      <point x="2452" y="2681"/>
      <point x="2337" y="3104"/>
    </contour>
  </outline>
</glyph>
<glyph name="Q" format="2">
  <advance width="2974"/>
  <unicode hex="0051"/>
  <outline>
    <contour>
      <point x="1848" y="-1016" type="curve"/>
      <point x="1848" y="-1024" type="line"/>
      <point x="996" y="-1024"/>
      <point x="774" y="-699"/>
      <point x="978" y="9" type="curve"/>
      <point x="1164" y="-53"/>
      <point x="1378" y="-52"/>
      <point x="1572" y="9" type="curve"/>
      <point x="1368" y="-737"/>
      <point x="1494" y="-1016"/>
    </contour>
    <contour>
      <point x="1962" y="3104" type="curve" smooth="yes"/>
      <point x="1270" y="3104"/>
      <point x="773" y="1687"/>
      <point x="773" y="737" type="curve" smooth="yes"/>
      <point x="773" y="319"/>
      <point x="889" y="-32"/>
      <point x="1264" y="-32" type="curve" smooth="yes"/>
      <point x="1997" y="-32"/>
      <point x="2452" y="1385"/>
      <point x="2452" y="2335" type="curve" smooth="yes"/>
      <point x="2452" y="2671"/>
      <point x="2337" y="3104"/>
    </contour>
    <contour>
      <point x="1264" y="-40" type="curve" smooth="yes"/>
      <point x="607" y="-40"/>
      <point x="221" y="376"/>
      <point x="221" y="1044" type="curve" smooth="yes"/>
      <point x="221" y="2203"/>
      <point x="1090" y="3112"/>
      <point x="1962" y="3112" type="curve" smooth="yes"/>
      <point x="2579" y="3112"/>
      <point x="3005" y="2696"/>
      <point x="3005" y="2028" type="curve" smooth="yes"/>
      <point x="3005" y="869"/>
      <point x="2178" y="-40"/>
    </contour>
  </outline>
</glyph>
<glyph name="S" format="2">
  <advance width="570"/>
  <unicode hex="0053"/>
  <outline>
    <contour>
      <point x="557" y="571" type="line"/>
      <point x="550" y="611"/>
      <point x="542" y="649"/>
      <point x="514" y="691" type="curve"/>
      <point x="604" y="760" type="line"/>
      <point x="606" y="760" type="line"/>
      <point x="559" y="547" type="line"/>
      <point x="557" y="547" type="line"/>
    </contour>
    <contour>
      <point x="559" y="547" type="curve"/>
      <point x="557" y="547" type="line"/>
      <point x="551" y="676"/>
      <point x="489" y="757"/>
      <point x="364" y="757" type="curve" smooth="yes"/>
      <point x="290" y="757"/>
      <point x="213" y="705"/>
      <point x="213" y="621" type="curve" smooth="yes"/>
      <point x="213" y="436"/>
      <point x="521" y="496"/>
      <point x="521" y="232" type="curve" smooth="yes"/>
      <point x="521" y="92"/>
      <point x="391" y="-15"/>
      <point x="242" y="-15" type="curve" smooth="yes"/>
      <point x="86" y="-15"/>
      <point x="38" y="87"/>
      <point x="29" y="207" type="curve"/>
      <point x="31" y="207" type="line"/>
      <point x="39" y="90"/>
      <point x="87" y="-13"/>
      <point x="240" y="-13" type="curve" smooth="yes"/>
      <point x="344" y="-13"/>
      <point x="422" y="54"/>
      <point x="422" y="149" type="curve" smooth="yes"/>
      <point x="422" y="358"/>
      <point x="115" y="301"/>
      <point x="115" y="527" type="curve" smooth="yes"/>
      <point x="115" y="681"/>
      <point x="263" y="760"/>
      <point x="362" y="760" type="curve" smooth="yes"/>
      <point x="490" y="760"/>
      <point x="553" y="678"/>
    </contour>
    <contour>
      <point x="-19" y="-10" type="line"/>
      <point x="-21" y="-10" type="line"/>
      <point x="29" y="207" type="line"/>
      <point x="31" y="207" type="line"/>
      <point x="34" y="167" type="line"/>
      <point x="43" y="125"/>
      <point x="54" y="90"/>
      <point x="73" y="64" type="curve"/>
    </contour>
  </outline>
</glyph>
<glyph name="T" format="2">
  <advance width="642"/>
  <unicode hex="0054"/>
  <outline>
    <contour>
      <point x="93" y="2" type="line"/>
      <point x="432" y="2" type="line"/>
      <point x="432" y="0" type="line"/>
      <point x="93" y="0" type="line"/>
    </contour>
    <contour>
      <point x="375" y="750" type="line"/>
      <point x="494" y="750" type="line"/>
      <point x="320" y="0" type="line"/>
      <point x="201" y="0" type="line"/>
    </contour>
    <contour>
      <point x="575" y="748" type="curve" smooth="yes"/>
      <point x="284" y="748" type="line" smooth="yes"/>
      <point x="171" y="748"/>
      <point x="111" y="645"/>
      <point x="76" y="519" type="curve"/>
      <point x="74" y="519" type="line"/>
      <point x="127" y="750" type="line"/>
      <point x="742" y="750" type="line"/>
      <point x="689" y="519" type="line"/>
      <point x="687" y="519" type="line"/>
      <point x="710" y="646"/>
      <point x="688" y="748"/>
    </contour>
  </outline>
</glyph>
<glyph name="V" format="2">
  <advance width="3045"/>
  <unicode hex="0056"/>
  <outline>
    <contour>
      <point x="3456" y="3064" type="line"/>
      <point x="2555" y="3064" type="line"/>
      <point x="2555" y="3072" type="line"/>
      <point x="3456" y="3072" type="line"/>
    </contour>
    <contour>
      <point x="1798" y="3064" type="line"/>
      <point x="487" y="3064" type="line"/>
      <point x="487" y="3072" type="line"/>
      <point x="1798" y="3072" type="line"/>
    </contour>
    <contour>
      <point x="1586" y="521" type="line"/>
      <point x="3060" y="3072" type="line"/>
      <point x="3069" y="3072" type="line"/>
      <point x="1271" y="-46" type="line"/>
      <point x="1163" y="-46" type="line"/>
      <point x="773" y="3072" type="line"/>
      <point x="1326" y="3072" type="line"/>
    </contour>
  </outline>
</glyph>
<glyph name="W" format="2">
  <advance width="1015"/>
  <unicode hex="0057"/>
  <outline>
    <contour>
      <point x="388" y="149" type="line"/>
      <point x="550" y="429" type="line"/>
      <point x="552" y="429" type="line"/>
      <point x="299" y="-10" type="line"/>
      <point x="280" y="-10" type="line"/>
      <point x="207" y="750" type="line"/>
      <point x="333" y="750" type="line"/>
    </contour>
    <contour>
      <point x="598" y="417" type="line"/>
      <point x="596" y="417" type="line"/>
      <point x="789" y="750" type="line"/>
      <point x="791" y="750" type="line"/>
    </contour>
    <contour>
      <point x="1116" y="748" type="line"/>
      <point x="924" y="748" type="line"/>
      <point x="924" y="750" type="line"/>
      <point x="1116" y="750" type="line"/>
    </contour>
    <contour>
      <point x="878" y="748" type="line"/>
      <point x="119" y="748" type="line"/>
      <point x="119" y="750" type="line"/>
      <point x="878" y="750" type="line"/>
    </contour>
    <contour>
      <point x="668" y="149" type="line"/>
      <point x="1016" y="750" type="line"/>
      <point x="1018" y="750" type="line"/>
      <point x="578" y="-10" type="line"/>
      <point x="565" y="-10" type="line"/>
      <point x="492" y="750" type="line"/>
      <point x="612" y="750" type="line"/>
    </contour>
  </outline>
</glyph>
<glyph name="X" format="2">
  <advance width="3075"/>
  <unicode hex="0058"/>
  <outline>
    <contour>
      <point x="1662" y="1544" type="line"/>
      <point x="1648" y="1544" type="line"/>
      <point x="2869" y="3064" type="line"/>
      <point x="2881" y="3064" type="line"/>
    </contour>
    <contour>
      <point x="249" y="0" type="line"/>
      <point x="237" y="0" type="line"/>
      <point x="1643" y="1708" type="line"/>
      <point x="1655" y="1708" type="line"/>
    </contour>
    <contour>
      <point x="1551" y="8" type="line"/>
      <point x="2822" y="8" type="line"/>
      <point x="2822" y="0" type="line"/>
      <point x="1551" y="0" type="line"/>
    </contour>
    <contour>
      <point x="-209" y="8" type="line"/>
      <point x="773" y="8" type="line"/>
      <point x="773" y="0" type="line"/>
      <point x="-209" y="0" type="line"/>
    </contour>
    <contour>
      <point x="1900" y="3064" type="line"/>
      <point x="629" y="3064" type="line"/>
      <point x="629" y="3072" type="line"/>
      <point x="1900" y="3072" type="line"/>
    </contour>
    <contour>
      <point x="3323" y="3064" type="line"/>
      <point x="2422" y="3064" type="line"/>
      <point x="2422" y="3072" type="line"/>
      <point x="3323" y="3072" type="line"/>
    </contour>
    <contour>
      <point x="2538" y="0" type="line"/>
      <point x="1945" y="0" type="line"/>
      <point x="917" y="3072" type="line"/>
      <point x="1494" y="3072" type="line"/>
    </contour>
  </outline>
</glyph>
<glyph name="Y" format="2">
  <advance width="3024"/>
  <unicode hex="0059"/>
  <outline>
    <contour>
      <point x="3436" y="3064" type="line"/>
      <point x="2576" y="3064" type="line"/>
      <point x="2576" y="3072" type="line"/>
      <point x="3436" y="3072" type="line"/>
    </contour>
    <contour>
      <point x="1787" y="3064" type="line"/>
      <point x="487" y="3064" type="line"/>
      <point x="487" y="3072" type="line"/>
      <point x="1787" y="3072" type="line"/>
    </contour>
    <contour>
      <point x="650" y="8" type="line"/>
      <point x="1941" y="8" type="line"/>
      <point x="1941" y="0" type="line"/>
      <point x="650" y="0" type="line"/>
    </contour>
    <contour>
      <point x="1871" y="1563" type="line"/>
      <point x="3071" y="3064" type="line"/>
      <point x="3080" y="3064" type="line"/>
      <point x="1875" y="1550" type="line"/>
      <point x="1531" y="0" type="line"/>
      <point x="1018" y="0" type="line"/>
      <point x="1366" y="1544" type="line"/>
      <point x="773" y="3072" type="line"/>
      <point x="1346" y="3072" type="line"/>
    </contour>
  </outline>
</glyph>
<glyph name="Z" format="2">
  <advance width="4568"/>
  <unicode hex="005A"/>
  <outline>
    <contour>
      <point x="3904" y="5984" type="line"/>
      <point x="2600" y="5984" type="line" smooth="yes"/>
      <point x="1504" y="5984"/>
      <point x="1056" y="5448"/>
      <point x="792" y="4592" type="curve"/>
      <point x="776" y="4592" type="line"/>
      <point x="1104" y="6000" type="line"/>
      <point x="5096" y="6000" type="line"/>
      <point x="5096" y="5984" type="line"/>
      <point x="784" y="16" type="line"/>
      <point x="2328" y="16" type="line" smooth="yes"/>
      <point x="3424" y="16"/>
      <point x="3856" y="560"/>
      <point x="4168" y="1568" type="curve"/>
      <point x="4184" y="1568" type="line"/>
      <point x="3824" y="0" type="line"/>
      <point x="-408" y="0" type="line"/>
      <point x="-408" y="16" type="line"/>
    </contour>
  </outline>
</glyph>
<glyph name="bracketleft" format="2">
  <advance width="349"/>
  <unicode hex="005B"/>
  <outline>
    <contour>
      <point x="200" y="780" type="line"/>
      <point x="454" y="780" type="line"/>
      <point x="454" y="778" type="line"/>
      <point x="309" y="778" type="line"/>
      <point x="101" y="-148" type="line"/>
      <point x="244" y="-148" type="line"/>
      <point x="244" y="-150" type="line"/>
      <point x="-10" y="-150" type="line"/>
    </contour>
  </outline>
</glyph>
<glyph name="asciicircum" format="2">
  <advance width="4360"/>
  <unicode hex="005E"/>
  <outline>
    <contour>
      <point x="3264" y="5784" type="line"/>
      <point x="1704" y="5016" type="line"/>
      <point x="1680" y="5040" type="line"/>
      <point x="3040" y="6160" type="line"/>
      <point x="3560" y="6160" type="line"/>
      <point x="4440" y="5040" type="line"/>
      <point x="4416" y="5016" type="line"/>
    </contour>
  </outline>
</glyph>
<glyph name="b" format="2">
  <advance width="578"/>
  <unicode hex="0062"/>
  <outline>
    <contour>
      <point x="208" y="748" type="line"/>
      <point x="131" y="748" type="line"/>
      <point x="131" y="750" type="line"/>
      <point x="319" y="750" type="line"/>
      <point x="177" y="130" type="line"/>
      <point x="177" y="62"/>
      <point x="193" y="-8"/>
      <point x="246" y="-8" type="curve" smooth="yes"/>
      <point x="340" y="-8"/>
      <point x="424" y="197"/>
      <point x="424" y="331" type="curve" smooth="yes"/>
      <point x="424" y="397"/>
      <point x="402" y="451"/>
      <point x="357" y="451" type="curve" smooth="yes"/>
      <point x="288" y="451"/>
      <point x="226" y="352"/>
      <point x="199" y="230" type="curve"/>
      <point x="197" y="230" type="line"/>
      <point x="235" y="402"/>
      <point x="310" y="469"/>
      <point x="391" y="469" type="curve" smooth="yes"/>
      <point x="458" y="469"/>
      <point x="548" y="438"/>
      <point x="548" y="310" type="curve" smooth="yes"/>
      <point x="548" y="100"/>
      <point x="399" y="-10"/>
      <point x="244" y="-10" type="curve" smooth="yes"/>
      <point x="151" y="-10"/>
      <point x="95" y="49"/>
      <point x="65" y="120" type="curve"/>
    </contour>
  </outline>
</glyph>
<glyph name="c" format="2">
  <advance width="476"/>
  <unicode hex="0063"/>
  <outline>
    <contour>
      <point x="454" y="358" type="curve"/>
      <point x="449" y="417"/>
      <point x="401" y="465"/>
      <point x="321" y="465" type="curve" smooth="yes"/>
      <point x="198" y="465"/>
      <point x="139" y="262"/>
      <point x="139" y="138" type="curve" smooth="yes"/>
      <point x="139" y="54"/>
      <point x="152" y="-2"/>
      <point x="202" y="-2" type="curve" smooth="yes"/>
      <point x="271" y="-2"/>
      <point x="358" y="44"/>
      <point x="410" y="143" type="curve"/>
      <point x="412" y="143" type="line"/>
      <point x="362" y="46"/>
      <point x="273" y="-10"/>
      <point x="178" y="-10" type="curve" smooth="yes"/>
      <point x="103" y="-10"/>
      <point x="15" y="30"/>
      <point x="15" y="158" type="curve" smooth="yes"/>
      <point x="15" y="348"/>
      <point x="164" y="470"/>
      <point x="303" y="470" type="curve" smooth="yes"/>
      <point x="395" y="470"/>
      <point x="458" y="422"/>
      <point x="458" y="348" type="curve" smooth="yes"/>
      <point x="458" y="295"/>
      <point x="424" y="269"/>
      <point x="388" y="269" type="curve" smooth="yes"/>
      <point x="357" y="269"/>
      <point x="321" y="289"/>
      <point x="321" y="333" type="curve" smooth="yes"/>
      <point x="321" y="374"/>
      <point x="358" y="397"/>
      <point x="389" y="397" type="curve" smooth="yes"/>
      <point x="428" y="397"/>
      <point x="446" y="381"/>
    </contour>
  </outline>
</glyph>
<glyph name="d" format="2">
  <advance width="4960"/>
  <unicode hex="0064"/>
  <outline>
    <contour>
      <point x="4800" y="1304" type="line"/>
      <point x="4496" y="504"/>
      <point x="3992" y="-80"/>
      <point x="3296" y="-80" type="curve" smooth="yes"/>
      <point x="2872" y="-80"/>
      <point x="2656" y="104"/>
      <point x="2656" y="536" type="curve" smooth="yes"/>
      <point x="2656" y="576"/>
      <point x="2664" y="664"/>
      <point x="2672" y="712" type="curve" smooth="yes"/>
      <point x="2840" y="1456" type="line"/>
      <point x="2976" y="2016" type="line"/>
      <point x="3016" y="2280" type="line"/>
      <point x="3848" y="5984" type="line"/>
      <point x="3104" y="5984" type="line"/>
      <point x="3104" y="6000" type="line"/>
      <point x="4728" y="6000" type="line"/>
      <point x="3440" y="320" type="line" smooth="yes"/>
      <point x="3432" y="272"/>
      <point x="3424" y="216"/>
      <point x="3424" y="176" type="curve" smooth="yes"/>
      <point x="3424" y="88"/>
      <point x="3464" y="16"/>
      <point x="3568" y="16" type="curve" smooth="yes"/>
      <point x="4016" y="16"/>
      <point x="4512" y="568"/>
      <point x="4784" y="1312" type="curve"/>
    </contour>
    <contour>
      <point x="3016" y="2512" type="curve" smooth="yes"/>
      <point x="3016" y="3064"/>
      <point x="2856" y="3592"/>
      <point x="2480" y="3592" type="curve" smooth="yes"/>
      <point x="1808" y="3592"/>
      <point x="1112" y="2144"/>
      <point x="1112" y="1072" type="curve" smooth="yes"/>
      <point x="1112" y="464"/>
      <point x="1288" y="56"/>
      <point x="1648" y="56" type="curve" smooth="yes"/>
      <point x="2464" y="56"/>
      <point x="3016" y="1616"/>
    </contour>
    <contour>
      <point x="3032" y="2512" type="curve" smooth="yes"/>
      <point x="3032" y="1648"/>
      <point x="2520" y="-80"/>
      <point x="1392" y="-80" type="curve" smooth="yes"/>
      <point x="840" y="-80"/>
      <point x="120" y="240"/>
      <point x="120" y="1280" type="curve" smooth="yes"/>
      <point x="120" y="2880"/>
      <point x="1376" y="3760"/>
      <point x="2184" y="3760" type="curve" smooth="yes"/>
      <point x="2792" y="3760"/>
      <point x="3032" y="3248"/>
    </contour>
  </outline>
</glyph>
<glyph name="e" format="2">
  <advance width="482"/>
  <unicode hex="0065"/>
  <outline>
    <contour>
      <point x="139" y="130" type="curve" smooth="yes"/>
      <point x="139" y="62"/>
      <point x="149" y="-3"/>
      <point x="204" y="-3" type="curve" smooth="yes"/>
      <point x="297" y="-3"/>
      <point x="377" y="69"/>
      <point x="418" y="143" type="curve"/>
      <point x="420" y="143" type="line"/>
      <point x="379" y="66"/>
      <point x="295" y="-10"/>
      <point x="184" y="-10" type="curve" smooth="yes"/>
      <point x="97" y="-10"/>
      <point x="15" y="38"/>
      <point x="15" y="158" type="curve" smooth="yes"/>
      <point x="15" y="349"/>
      <point x="169" y="470"/>
      <point x="306" y="470" type="curve" smooth="yes"/>
      <point x="400" y="470"/>
      <point x="467" y="442"/>
      <point x="467" y="370" type="curve" smooth="yes"/>
      <point x="467" y="223"/>
      <point x="233" y="217"/>
      <point x="122" y="217" type="curve"/>
      <point x="122" y="219" type="line"/>
      <point x="217" y="219"/>
      <point x="357" y="242"/>
      <point x="357" y="378" type="curve" smooth="yes"/>
      <point x="357" y="421"/>
      <point x="348" y="468"/>
      <point x="315" y="468" type="curve" smooth="yes"/>
      <point x="234" y="468"/>
      <point x="139" y="290"/>
    </contour>
  </outline>
</glyph>
<glyph name="f" format="2">
  <advance width="2936"/>
  <unicode hex="0066"/>
  <outline>
    <contour>
      <point x="472" y="3680" type="line"/>
      <point x="3176" y="3680" type="line"/>
      <point x="3176" y="3664" type="line"/>
      <point x="472" y="3664" type="line"/>
    </contour>
    <contour>
      <point x="4176" y="5392" type="curve"/>
      <point x="4128" y="5680"/>
      <point x="3816" y="6064"/>
      <point x="3256" y="6064" type="curve" smooth="yes"/>
      <point x="2696" y="6064"/>
      <point x="2312" y="5296"/>
      <point x="2136" y="4320" type="curve" smooth="yes"/>
      <point x="1336" y="-96" type="line" smooth="yes"/>
      <point x="1136" y="-1216"/>
      <point x="376" y="-2080"/>
      <point x="-664" y="-2080" type="curve" smooth="yes"/>
      <point x="-1360" y="-2080"/>
      <point x="-1672" y="-1608"/>
      <point x="-1672" y="-1240" type="curve" smooth="yes"/>
      <point x="-1672" y="-880"/>
      <point x="-1440" y="-680"/>
      <point x="-1152" y="-680" type="curve" smooth="yes"/>
      <point x="-904" y="-680"/>
      <point x="-624" y="-824"/>
      <point x="-624" y="-1176" type="curve" smooth="yes"/>
      <point x="-624" y="-1528"/>
      <point x="-888" y="-1696"/>
      <point x="-1168" y="-1696" type="curve" smooth="yes"/>
      <point x="-1368" y="-1696"/>
      <point x="-1568" y="-1560"/>
      <point x="-1632" y="-1392" type="curve"/>
      <point x="-1584" y="-1680"/>
      <point x="-1264" y="-2064"/>
      <point x="-704" y="-2064" type="curve" smooth="yes"/>
      <point x="-144" y="-2064"/>
      <point x="240" y="-1296"/>
      <point x="416" y="-320" type="curve" smooth="yes"/>
      <point x="1216" y="4096" type="line" smooth="yes"/>
      <point x="1416" y="5216"/>
      <point x="2176" y="6080"/>
      <point x="3216" y="6080" type="curve" smooth="yes"/>
      <point x="3912" y="6080"/>
      <point x="4224" y="5608"/>
      <point x="4224" y="5240" type="curve" smooth="yes"/>
      <point x="4224" y="4880"/>
      <point x="3992" y="4680"/>
      <point x="3704" y="4680" type="curve" smooth="yes"/>
      <point x="3456" y="4680"/>
      <point x="3176" y="4824"/>
      <point x="3176" y="5176" type="curve" smooth="yes"/>
      <point x="3176" y="5528"/>
      <point x="3440" y="5696"/>
      <point x="3720" y="5696" type="curve" smooth="yes"/>
      <point x="3920" y="5696"/>
      <point x="4112" y="5552"/>
    </contour>
  </outline>
</glyph>
<glyph name="g" format="2">
  <advance width="583"/>
  <unicode hex="0067"/>
  <outline>
    <contour>
      <point x="131" y="-16" type="line"/>
      <point x="90" y="-29"/>
      <point x="60" y="-82"/>
      <point x="60" y="-142" type="curve" smooth="yes"/>
      <point x="60" y="-202"/>
      <point x="83" y="-257"/>
      <point x="163" y="-257" type="curve" smooth="yes"/>
      <point x="258" y="-257"/>
      <point x="387" y="-206"/>
      <point x="387" y="-95" type="curve" smooth="yes"/>
      <point x="387" y="-41"/>
      <point x="357" y="-19"/>
      <point x="302" y="-19" type="curve" smooth="yes"/>
      <point x="281" y="-19"/>
      <point x="219" y="-19"/>
      <point x="197" y="-19" type="curve" smooth="yes"/>
      <point x="107" y="-19"/>
      <point x="33" y="-5"/>
      <point x="33" y="57" type="curve" smooth="yes"/>
      <point x="33" y="133"/>
      <point x="150" y="162"/>
      <point x="215" y="162" type="curve"/>
      <point x="215" y="160" type="line"/>
      <point x="182" y="160"/>
      <point x="115" y="151"/>
      <point x="115" y="110" type="curve" smooth="yes"/>
      <point x="115" y="85"/>
      <point x="163" y="75"/>
      <point x="218" y="75" type="curve" smooth="yes"/>
      <point x="253" y="75"/>
      <point x="275" y="76"/>
      <point x="303" y="76" type="curve" smooth="yes"/>
      <point x="384" y="76"/>
      <point x="428" y="44"/>
      <point x="428" y="-42" type="curve" smooth="yes"/>
      <point x="428" y="-171"/>
      <point x="299" y="-260"/>
      <point x="161" y="-260" type="curve" smooth="yes"/>
      <point x="46" y="-260"/>
      <point x="-45" y="-232"/>
      <point x="-45" y="-155" type="curve" smooth="yes"/>
      <point x="-45" y="-56"/>
      <point x="84" y="-16"/>
      <point x="129" y="-16" type="curve" smooth="yes"/>
    </contour>
    <contour>
      <point x="604" y="390" type="curve" smooth="yes"/>
      <point x="604" y="341"/>
      <point x="575" y="324"/>
      <point x="548" y="324" type="curve" smooth="yes"/>
      <point x="521" y="324"/>
      <point x="493" y="342"/>
      <point x="493" y="379" type="curve" smooth="yes"/>
      <point x="493" y="409"/>
      <point x="519" y="431"/>
      <point x="550" y="431" type="curve" smooth="yes"/>
      <point x="580" y="431"/>
      <point x="601" y="408"/>
      <point x="603" y="391" type="curve"/>
      <point x="599" y="439"/>
      <point x="565" y="463"/>
      <point x="521" y="463" type="curve" smooth="yes"/>
      <point x="478" y="463"/>
      <point x="417" y="426"/>
      <point x="376" y="346" type="curve"/>
      <point x="374" y="347" type="line"/>
      <point x="416" y="430"/>
      <point x="479" y="465"/>
      <point x="521" y="465" type="curve" smooth="yes"/>
      <point x="575" y="465"/>
      <point x="604" y="430"/>
    </contour>
    <contour>
      <point x="217" y="162" type="curve" smooth="yes"/>
      <point x="294" y="162"/>
      <point x="336" y="303"/>
      <point x="336" y="381" type="curve" smooth="yes"/>
      <point x="336" y="421"/>
      <point x="320" y="468"/>
      <point x="285" y="468" type="curve" smooth="yes"/>
      <point x="208" y="468"/>
      <point x="166" y="327"/>
      <point x="166" y="249" type="curve" smooth="yes"/>
      <point x="166" y="209"/>
      <point x="182" y="162"/>
    </contour>
    <contour>
      <point x="215" y="160" type="curve" smooth="yes"/>
      <point x="128" y="160"/>
      <point x="58" y="195"/>
      <point x="58" y="285" type="curve" smooth="yes"/>
      <point x="58" y="395"/>
      <point x="168" y="470"/>
      <point x="285" y="470" type="curve" smooth="yes"/>
      <point x="372" y="470"/>
      <point x="444" y="435"/>
      <point x="444" y="345" type="curve" smooth="yes"/>
      <point x="444" y="235"/>
      <point x="332" y="160"/>
    </contour>
  </outline>
</glyph>
<glyph name="h" format="2">
  <advance width="590"/>
  <unicode hex="0068"/>
  <outline>
    <contour>
      <point x="377" y="307" type="line" smooth="yes"/>
      <point x="403" y="384"/>
      <point x="408" y="460"/>
      <point x="366" y="460" type="curve" smooth="yes"/>
      <point x="281" y="460"/>
      <point x="204" y="326"/>
      <point x="169" y="173" type="curve"/>
      <point x="167" y="173" type="line"/>
      <point x="204" y="327"/>
      <point x="275" y="470"/>
      <point x="390" y="470" type="curve" smooth="yes"/>
      <point x="489" y="470"/>
      <point x="518" y="401"/>
      <point x="490" y="315" type="curve" smooth="yes"/>
      <point x="399" y="37" type="line" smooth="yes"/>
      <point x="397" y="31"/>
      <point x="396" y="24"/>
      <point x="396" y="19" type="curve" smooth="yes"/>
      <point x="396" y="8"/>
      <point x="402" y="1"/>
      <point x="415" y="1" type="curve" smooth="yes"/>
      <point x="473" y="1"/>
      <point x="532" y="67"/>
      <point x="568" y="163" type="curve"/>
      <point x="570" y="163" type="line"/>
      <point x="532" y="63"/>
      <point x="473" y="-10"/>
      <point x="386" y="-10" type="curve" smooth="yes"/>
      <point x="331" y="-10"/>
      <point x="301" y="16"/>
      <point x="301" y="63" type="curve" smooth="yes"/>
      <point x="301" y="78"/>
      <point x="304" y="90"/>
      <point x="306" y="98" type="curve" smooth="yes"/>
    </contour>
    <contour>
      <point x="190" y="748" type="line"/>
      <point x="121" y="748" type="line"/>
      <point x="121" y="750" type="line"/>
      <point x="301" y="750" type="line"/>
      <point x="129" y="0" type="line"/>
      <point x="19" y="0" type="line"/>
    </contour>
  </outline>
</glyph>
<glyph name="i" format="2">
  <advance width="2696"/>
  <unicode hex="0069"/>
  <outline>
    <contour>
      <point x="1224" y="5520" type="curve" smooth="yes"/>
      <point x="1224" y="5832"/>
      <point x="1480" y="6080"/>
      <point x="1792" y="6080" type="curve" smooth="yes"/>
      <point x="2104" y="6080"/>
      <point x="2344" y="5832"/>
      <point x="2344" y="5520" type="curve" smooth="yes"/>
      <point x="2344" y="5208"/>
      <point x="2104" y="4960"/>
      <point x="1792" y="4960" type="curve" smooth="yes"/>
      <point x="1480" y="4960"/>
      <point x="1224" y="5208"/>
    </contour>
    <contour>
      <point x="2544" y="1304" type="line"/>
      <point x="2240" y="504"/>
      <point x="1736" y="-80"/>
      <point x="1040" y="-80" type="curve" smooth="yes"/>
      <point x="616" y="-80"/>
      <point x="400" y="104"/>
      <point x="400" y="536" type="curve" smooth="yes"/>
      <point x="400" y="576"/>
      <point x="408" y="664"/>
      <point x="416" y="712" type="curve" smooth="yes"/>
      <point x="1096" y="3664" type="line"/>
      <point x="512" y="3664" type="line"/>
      <point x="512" y="3680" type="line"/>
      <point x="1984" y="3680" type="line"/>
      <point x="1184" y="320" type="line" smooth="yes"/>
      <point x="1176" y="272"/>
      <point x="1168" y="216"/>
      <point x="1168" y="176" type="curve" smooth="yes"/>
      <point x="1168" y="88"/>
      <point x="1208" y="16"/>
      <point x="1312" y="16" type="curve" smooth="yes"/>
      <point x="1768" y="16"/>
      <point x="2248" y="552"/>
      <point x="2536" y="1312" type="curve"/>
    </contour>
  </outline>
</glyph>
<glyph name="j" format="2">
  <advance width="2208"/>
  <unicode hex="006A"/>
  <outline>
    <contour>
      <point x="1296" y="5520" type="curve" smooth="yes"/>
      <point x="1296" y="5832"/>
      <point x="1544" y="6080"/>
      <point x="1856" y="6080" type="curve" smooth="yes"/>
      <point x="2168" y="6080"/>
      <point x="2416" y="5832"/>
      <point x="2416" y="5520" type="curve" smooth="yes"/>
      <point x="2416" y="5208"/>
      <point x="2168" y="4960"/>
      <point x="1856" y="4960" type="curve" smooth="yes"/>
      <point x="1544" y="4960"/>
      <point x="1296" y="5208"/>
    </contour>
    <contour>
      <point x="-1456" y="-1312" type="curve"/>
      <point x="-1400" y="-1680"/>
      <point x="-1048" y="-2064"/>
      <point x="-600" y="-2064" type="curve" smooth="yes"/>
      <point x="136" y="-2064"/>
      <point x="136" y="-800"/>
      <point x="360" y="160" type="curve" smooth="yes"/>
      <point x="1176" y="3664" type="line"/>
      <point x="424" y="3664" type="line"/>
      <point x="424" y="3680" type="line"/>
      <point x="2032" y="3680" type="line"/>
      <point x="1248" y="-96" type="line" smooth="yes"/>
      <point x="1040" y="-1096"/>
      <point x="480" y="-2080"/>
      <point x="-560" y="-2080" type="curve" smooth="yes"/>
      <point x="-1160" y="-2080"/>
      <point x="-1496" y="-1560"/>
      <point x="-1496" y="-1216" type="curve" smooth="yes"/>
      <point x="-1496" y="-856"/>
      <point x="-1208" y="-616"/>
      <point x="-920" y="-616" type="curve" smooth="yes"/>
      <point x="-672" y="-616"/>
      <point x="-432" y="-792"/>
      <point x="-432" y="-1104" type="curve" smooth="yes"/>
      <point x="-432" y="-1432"/>
      <point x="-704" y="-1624"/>
      <point x="-992" y="-1624" type="curve" smooth="yes"/>
      <point x="-1240" y="-1624"/>
      <point x="-1392" y="-1464"/>
    </contour>
  </outline>
</glyph>
<glyph name="k" format="2">
  <advance width="4608"/>
  <unicode hex="006B"/>
  <outline>
    <contour>
      <point x="4448" y="1304" type="line"/>
      <point x="4144" y="504"/>
      <point x="3656" y="-80"/>
      <point x="2976" y="-80" type="curve" smooth="yes"/>
      <point x="2552" y="-80"/>
      <point x="2328" y="104"/>
      <point x="2328" y="536" type="curve" smooth="yes"/>
      <point x="2328" y="576"/>
      <point x="2336" y="664"/>
      <point x="2344" y="712" type="curve" smooth="yes"/>
      <point x="2432" y="1120" type="line" smooth="yes"/>
      <point x="2536" y="1584"/>
      <point x="2816" y="2280"/>
      <point x="2288" y="2280" type="curve" smooth="yes"/>
      <point x="1784" y="2280"/>
      <point x="1656" y="1808"/>
      <point x="1592" y="1520" type="curve"/>
      <point x="1576" y="1520" type="line"/>
      <point x="1728" y="2216"/>
      <point x="2048" y="2320"/>
      <point x="2424" y="2320" type="curve" smooth="yes"/>
      <point x="2976" y="2320"/>
      <point x="3488" y="2008"/>
      <point x="3248" y="968" type="curve" smooth="yes"/>
      <point x="3072" y="208" type="line" smooth="yes"/>
      <point x="3072" y="192"/>
      <point x="3072" y="152"/>
      <point x="3072" y="136" type="curve" smooth="yes"/>
      <point x="3072" y="48"/>
      <point x="3128" y="8"/>
      <point x="3232" y="8" type="curve" smooth="yes"/>
      <point x="3688" y="8"/>
      <point x="4168" y="568"/>
      <point x="4440" y="1312" type="curve"/>
    </contour>
    <contour>
      <point x="1496" y="2584" type="curve"/>
      <point x="1512" y="2568" type="line"/>
      <point x="1528" y="2160"/>
      <point x="1728" y="1952"/>
      <point x="2016" y="1952" type="curve" smooth="yes"/>
      <point x="2384" y="1952"/>
      <point x="2544" y="2368"/>
      <point x="2752" y="2880" type="curve" smooth="yes"/>
      <point x="2976" y="3424"/>
      <point x="3272" y="3760"/>
      <point x="3688" y="3760" type="curve" smooth="yes"/>
      <point x="4080" y="3760"/>
      <point x="4368" y="3496"/>
      <point x="4368" y="3048" type="curve" smooth="yes"/>
      <point x="4368" y="2672"/>
      <point x="4136" y="2504"/>
      <point x="3888" y="2504" type="curve" smooth="yes"/>
      <point x="3640" y="2504"/>
      <point x="3424" y="2688"/>
      <point x="3424" y="2968" type="curve" smooth="yes"/>
      <point x="3424" y="3224"/>
      <point x="3624" y="3408"/>
      <point x="3880" y="3408" type="curve" smooth="yes"/>
      <point x="4144" y="3408"/>
      <point x="4304" y="3248"/>
      <point x="4352" y="3080" type="curve"/>
      <point x="4336" y="3472"/>
      <point x="4088" y="3744"/>
      <point x="3688" y="3744" type="curve" smooth="yes"/>
      <point x="3288" y="3744"/>
      <point x="2992" y="3424"/>
      <point x="2768" y="2872" type="curve" smooth="yes"/>
      <point x="2544" y="2328"/>
      <point x="2384" y="1936"/>
      <point x="2016" y="1936" type="curve" smooth="yes"/>
      <point x="1720" y="1936"/>
      <point x="1496" y="2168"/>
    </contour>
    <contour>
      <point x="1744" y="5984" type="line"/>
      <point x="1032" y="5984" type="line"/>
      <point x="1032" y="6000" type="line"/>
      <point x="2632" y="6000" type="line"/>
      <point x="1240" y="0" type="line"/>
      <point x="360" y="0" type="line"/>
    </contour>
  </outline>
</glyph>
<glyph name="l" format="2">
  <advance width="327"/>
  <unicode hex="006C"/>
  <outline>
    <contour>
      <point x="308" y="163" type="line"/>
      <point x="270" y="63"/>
      <point x="207" y="-10"/>
      <point x="120" y="-10" type="curve" smooth="yes"/>
      <point x="67" y="-10"/>
      <point x="40" y="13"/>
      <point x="40" y="67" type="curve" smooth="yes"/>
      <point x="40" y="72"/>
      <point x="41" y="83"/>
      <point x="42" y="89" type="curve" smooth="yes"/>
      <point x="193" y="748" type="line"/>
      <point x="100" y="748" type="line"/>
      <point x="100" y="750" type="line"/>
      <point x="303" y="750" type="line"/>
      <point x="138" y="40" type="line" smooth="yes"/>
      <point x="137" y="34"/>
      <point x="136" y="27"/>
      <point x="136" y="22" type="curve" smooth="yes"/>
      <point x="136" y="11"/>
      <point x="141" y="2"/>
      <point x="154" y="2" type="curve" smooth="yes"/>
      <point x="213" y="2"/>
      <point x="274" y="74"/>
      <point x="307" y="164" type="curve"/>
    </contour>
  </outline>
</glyph>
<glyph name="n" format="2">
  <advance width="595"/>
  <unicode hex="006E"/>
  <outline>
    <contour>
      <point x="128" y="458" type="line"/>
      <point x="59" y="458" type="line"/>
      <point x="59" y="460" type="line"/>
      <point x="239" y="460" type="line"/>
      <point x="129" y="0" type="line"/>
      <point x="19" y="0" type="line"/>
    </contour>
    <contour>
      <point x="377" y="307" type="line" smooth="yes"/>
      <point x="403" y="384"/>
      <point x="408" y="460"/>
      <point x="366" y="460" type="curve" smooth="yes"/>
      <point x="281" y="460"/>
      <point x="205" y="326"/>
      <point x="170" y="173" type="curve"/>
      <point x="168" y="173" type="line"/>
      <point x="205" y="327"/>
      <point x="275" y="470"/>
      <point x="390" y="470" type="curve" smooth="yes"/>
      <point x="489" y="470"/>
      <point x="518" y="401"/>
      <point x="490" y="315" type="curve" smooth="yes"/>
      <point x="399" y="37" type="line" smooth="yes"/>
      <point x="397" y="31"/>
      <point x="396" y="24"/>
      <point x="396" y="19" type="curve" smooth="yes"/>
      <point x="396" y="8"/>
      <point x="402" y="1"/>
      <point x="415" y="1" type="curve" smooth="yes"/>
      <point x="473" y="1"/>
      <point x="536" y="67"/>
      <point x="572" y="163" type="curve"/>
      <point x="574" y="163" type="line"/>
      <point x="536" y="63"/>
      <point x="473" y="-10"/>
      <point x="386" y="-10" type="curve" smooth="yes"/>
      <point x="331" y="-10"/>
      <point x="301" y="16"/>
      <point x="301" y="63" type="curve" smooth="yes"/>
      <point x="301" y="78"/>
      <point x="304" y="90"/>
      <point x="306" y="98" type="curve" smooth="yes"/>
    </contour>
  </outline>
</glyph>
<glyph name="p" format="2">
  <advance width="4560"/>
  <unicode hex="0070"/>
  <outline>
    <contour>
      <point x="1448" y="1168" type="curve" smooth="yes"/>
      <point x="1448" y="616"/>
      <point x="1608" y="88"/>
      <point x="1984" y="88" type="curve" smooth="yes"/>
      <point x="2656" y="88"/>
      <point x="3368" y="1536"/>
      <point x="3368" y="2608" type="curve" smooth="yes"/>
      <point x="3368" y="3216"/>
      <point x="3168" y="3624"/>
      <point x="2808" y="3624" type="curve" smooth="yes"/>
      <point x="1992" y="3624"/>
      <point x="1448" y="2064"/>
    </contour>
    <contour>
      <point x="1432" y="1168" type="curve" smooth="yes"/>
      <point x="1432" y="2032"/>
      <point x="1936" y="3760"/>
      <point x="3064" y="3760" type="curve" smooth="yes"/>
      <point x="3616" y="3760"/>
      <point x="4360" y="3440"/>
      <point x="4360" y="2400" type="curve" smooth="yes"/>
      <point x="4360" y="800"/>
      <point x="3080" y="-80"/>
      <point x="2272" y="-80" type="curve" smooth="yes"/>
      <point x="1664" y="-80"/>
      <point x="1432" y="432"/>
    </contour>
    <contour>
      <point x="-760" y="-1984" type="line"/>
      <point x="1200" y="-1984" type="line"/>
      <point x="1200" y="-2000" type="line"/>
      <point x="-760" y="-2000" type="line"/>
    </contour>
    <contour>
      <point x="1064" y="3664" type="line"/>
      <point x="496" y="3664" type="line"/>
      <point x="496" y="3680" type="line"/>
      <point x="1952" y="3680" type="line"/>
      <point x="1624" y="2280" type="line"/>
      <point x="1520" y="1848" type="line"/>
      <point x="1472" y="1552" type="line"/>
      <point x="640" y="-2000" type="line"/>
      <point x="-240" y="-2000" type="line"/>
    </contour>
  </outline>
</glyph>
<glyph name="q" format="2">
  <advance width="4488"/>
  <unicode hex="0071"/>
  <outline>
    <contour>
      <point x="3440" y="-1984" type="line"/>
      <point x="3440" y="-2000" type="line"/>
      <point x="1512" y="-2000" type="line"/>
      <point x="1512" y="-1984" type="line"/>
    </contour>
    <contour>
      <point x="2880" y="-2000" type="line"/>
      <point x="2032" y="-2000" type="line"/>
      <point x="2832" y="1408" type="line"/>
      <point x="2848" y="1448"/>
      <point x="2960" y="1992"/>
      <point x="2976" y="2048" type="curve"/>
      <point x="3016" y="2288" type="line"/>
      <point x="3328" y="3600" type="line"/>
      <point x="4208" y="3760" type="line"/>
    </contour>
    <contour>
      <point x="3016" y="2512" type="curve" smooth="yes"/>
      <point x="3016" y="3064"/>
      <point x="2856" y="3592"/>
      <point x="2480" y="3592" type="curve" smooth="yes"/>
      <point x="1808" y="3592"/>
      <point x="1112" y="2144"/>
      <point x="1112" y="1072" type="curve" smooth="yes"/>
      <point x="1112" y="464"/>
      <point x="1288" y="56"/>
      <point x="1648" y="56" type="curve" smooth="yes"/>
      <point x="2464" y="56"/>
      <point x="3016" y="1616"/>
    </contour>
    <contour>
      <point x="3032" y="2512" type="curve" smooth="yes"/>
      <point x="3032" y="1648"/>
      <point x="2520" y="-80"/>
      <point x="1392" y="-80" type="curve" smooth="yes"/>
      <point x="840" y="-80"/>
      <point x="120" y="240"/>
      <point x="120" y="1280" type="curve" smooth="yes"/>
      <point x="120" y="2880"/>
      <point x="1376" y="3760"/>
      <point x="2184" y="3760" type="curve" smooth="yes"/>
      <point x="2792" y="3760"/>
      <point x="3032" y="3248"/>
    </contour>
  </outline>
</glyph>
<glyph name="r" format="2">
  <advance width="3416"/>
  <unicode hex="0072"/>
  <outline>
    <contour>
      <point x="3616" y="3032" type="curve" smooth="yes"/>
      <point x="3616" y="2720"/>
      <point x="3424" y="2464"/>
      <point x="3072" y="2464" type="curve" smooth="yes"/>
      <point x="2760" y="2464"/>
      <point x="2520" y="2648"/>
      <point x="2520" y="2984" type="curve" smooth="yes"/>
      <point x="2520" y="3296"/>
      <point x="2768" y="3528"/>
      <point x="3064" y="3528" type="curve" smooth="yes"/>
      <point x="3312" y="3528"/>
      <point x="3512" y="3376"/>
      <point x="3592" y="3168" type="curve"/>
      <point x="3528" y="3504"/>
      <point x="3192" y="3744"/>
      <point x="2816" y="3744" type="curve" smooth="yes"/>
      <point x="1944" y="3744"/>
      <point x="1576" y="2168"/>
      <point x="1392" y="1384" type="curve"/>
      <point x="1376" y="1384" type="line"/>
      <point x="1584" y="2312"/>
      <point x="1952" y="3760"/>
      <point x="2816" y="3760" type="curve" smooth="yes"/>
      <point x="3224" y="3760"/>
      <point x="3616" y="3472"/>
    </contour>
    <contour>
      <point x="1072" y="3664" type="line"/>
      <point x="480" y="3664" type="line"/>
      <point x="480" y="3680" type="line"/>
      <point x="1920" y="3680" type="line"/>
      <point x="1080" y="0" type="line"/>
      <point x="200" y="0" type="line"/>
    </contour>
  </outline>
</glyph>
<glyph name="s" format="2">
  <advance width="1727"/>
  <unicode hex="0073"/>
  <outline>
    <contour>
      <point x="1532" y="1563" type="curve"/>
      <point x="1499" y="1757"/>
      <point x="1266" y="1912"/>
      <point x="948" y="1912" type="curve" smooth="yes"/>
      <point x="720" y="1912"/>
      <point x="562" y="1776"/>
      <point x="562" y="1608" type="curve" smooth="yes"/>
      <point x="562" y="1178"/>
      <point x="1462" y="1146"/>
      <point x="1462" y="602" type="curve" smooth="yes"/>
      <point x="1462" y="216"/>
      <point x="1084" y="-50"/>
      <point x="656" y="-50" type="curve" smooth="yes"/>
      <point x="189" y="-50"/>
      <point x="-20" y="214"/>
      <point x="-20" y="440" type="curve" smooth="yes"/>
      <point x="-20" y="618"/>
      <point x="120" y="715"/>
      <point x="252" y="715" type="curve" smooth="yes"/>
      <point x="364" y="715"/>
      <point x="507" y="638"/>
      <point x="507" y="464" type="curve" smooth="yes"/>
      <point x="507" y="310"/>
      <point x="382" y="220"/>
      <point x="254" y="220" type="curve" smooth="yes"/>
      <point x="102" y="220"/>
      <point x="9" y="324"/>
      <point x="-7" y="410" type="curve"/>
      <point x="13" y="182"/>
      <point x="239" y="-40"/>
      <point x="656" y="-40" type="curve" smooth="yes"/>
      <point x="942" y="-40"/>
      <point x="1122" y="132"/>
      <point x="1122" y="330" type="curve" smooth="yes"/>
      <point x="1122" y="737"/>
      <point x="229" y="721"/>
      <point x="229" y="1319" type="curve" smooth="yes"/>
      <point x="229" y="1725"/>
      <point x="618" y="1922"/>
      <point x="948" y="1922" type="curve" smooth="yes"/>
      <point x="1309" y="1922"/>
      <point x="1545" y="1723"/>
      <point x="1545" y="1521" type="curve" smooth="yes"/>
      <point x="1545" y="1353"/>
      <point x="1436" y="1272"/>
      <point x="1304" y="1272" type="curve" smooth="yes"/>
      <point x="1192" y="1272"/>
      <point x="1066" y="1348"/>
      <point x="1066" y="1502" type="curve" smooth="yes"/>
      <point x="1066" y="1634"/>
      <point x="1178" y="1726"/>
      <point x="1292" y="1726" type="curve" smooth="yes"/>
      <point x="1417" y="1726"/>
      <point x="1499" y="1658"/>
    </contour>
  </outline>
</glyph>
<glyph name="t" format="2">
  <advance width="1395"/>
  <unicode hex="0074"/>
  <outline>
    <contour>
      <point x="167" y="1884" type="line"/>
      <point x="1376" y="1884" type="line"/>
      <point x="1376" y="1876" type="line"/>
      <point x="167" y="1876" type="line"/>
    </contour>
    <contour>
      <point x="1306" y="668" type="line"/>
      <point x="1150" y="258"/>
      <point x="889" y="-40"/>
      <point x="526" y="-40" type="curve" smooth="yes"/>
      <point x="303" y="-40"/>
      <point x="185" y="53"/>
      <point x="185" y="278" type="curve" smooth="yes"/>
      <point x="185" y="298"/>
      <point x="189" y="344"/>
      <point x="194" y="368" type="curve" smooth="yes"/>
      <point x="614" y="2294" type="line"/>
      <point x="1080" y="2294" type="line"/>
      <point x="614" y="168" type="line" smooth="yes"/>
      <point x="610" y="144"/>
      <point x="606" y="114"/>
      <point x="606" y="94" type="curve" smooth="yes"/>
      <point x="606" y="48"/>
      <point x="625" y="16"/>
      <point x="679" y="16" type="curve" smooth="yes"/>
      <point x="926" y="16"/>
      <point x="1164" y="309"/>
      <point x="1302" y="672" type="curve"/>
    </contour>
  </outline>
</glyph>
<glyph name="u" format="2">
  <advance width="626"/>
  <unicode hex="0075"/>
  <outline>
    <contour>
      <point x="245" y="460" type="line"/>
      <point x="168" y="136" type="line" smooth="yes"/>
      <point x="150" y="57"/>
      <point x="150" y="5"/>
      <point x="193" y="5" type="curve" smooth="yes"/>
      <point x="265" y="5"/>
      <point x="345" y="125"/>
      <point x="385" y="287" type="curve"/>
      <point x="387" y="287" type="line"/>
      <point x="347" y="131"/>
      <point x="275" y="-10"/>
      <point x="161" y="-10" type="curve" smooth="yes"/>
      <point x="64" y="-10"/>
      <point x="43" y="59"/>
      <point x="61" y="141" type="curve" smooth="yes"/>
      <point x="133" y="458" type="line"/>
      <point x="63" y="458" type="line"/>
      <point x="63" y="460" type="line"/>
    </contour>
    <contour>
      <point x="607" y="163" type="line"/>
      <point x="569" y="63"/>
      <point x="505" y="-10"/>
      <point x="418" y="-10" type="curve" smooth="yes"/>
      <point x="365" y="-10"/>
      <point x="338" y="13"/>
      <point x="338" y="67" type="curve" smooth="yes"/>
      <point x="338" y="72"/>
      <point x="339" y="83"/>
      <point x="340" y="89" type="curve" smooth="yes"/>
      <point x="423" y="460" type="line"/>
      <point x="535" y="460" type="line"/>
      <point x="436" y="40" type="line" smooth="yes"/>
      <point x="435" y="34"/>
      <point x="434" y="27"/>
      <point x="434" y="22" type="curve" smooth="yes"/>
      <point x="434" y="11"/>
      <point x="439" y="3"/>
      <point x="452" y="3" type="curve" smooth="yes"/>
      <point x="515" y="3"/>
      <point x="573" y="78"/>
      <point x="605" y="164" type="curve"/>
    </contour>
  </outline>
</glyph>
<glyph name="v" format="2">
  <advance width="556"/>
  <unicode hex="0076"/>
  <outline>
    <contour>
      <point x="237" y="126" type="line" smooth="yes"/>
      <point x="224" y="47"/>
      <point x="213" y="-1"/>
      <point x="269" y="-1" type="curve" smooth="yes"/>
      <point x="375" y="-1"/>
      <point x="539" y="186"/>
      <point x="539" y="344" type="curve" smooth="yes"/>
      <point x="539" y="382"/>
      <point x="532" y="405"/>
      <point x="526" y="416" type="curve"/>
      <point x="526" y="391"/>
      <point x="504" y="335"/>
      <point x="453" y="335" type="curve" smooth="yes"/>
      <point x="403" y="335"/>
      <point x="382" y="371"/>
      <point x="382" y="402" type="curve" smooth="yes"/>
      <point x="382" y="438"/>
      <point x="411" y="469"/>
      <point x="454" y="469" type="curve" smooth="yes"/>
      <point x="519" y="469"/>
      <point x="541" y="407"/>
      <point x="541" y="344" type="curve" smooth="yes"/>
      <point x="541" y="186"/>
      <point x="377" y="-10"/>
      <point x="246" y="-10" type="curve" smooth="yes"/>
      <point x="143" y="-10"/>
      <point x="112" y="51"/>
      <point x="128" y="137" type="curve" smooth="yes"/>
      <point x="179" y="420" type="line" smooth="yes"/>
      <point x="180" y="426"/>
      <point x="181" y="433"/>
      <point x="181" y="438" type="curve" smooth="yes"/>
      <point x="181" y="449"/>
      <point x="175" y="457"/>
      <point x="161" y="457" type="curve" smooth="yes"/>
      <point x="98" y="457"/>
      <point x="43" y="378"/>
      <point x="12" y="296" type="curve"/>
      <point x="10" y="297" type="line"/>
      <point x="50" y="397"/>
      <point x="107" y="470"/>
      <point x="198" y="470" type="curve" smooth="yes"/>
      <point x="253" y="470"/>
      <point x="280" y="444"/>
      <point x="280" y="399" type="curve" smooth="yes"/>
      <point x="280" y="384"/>
      <point x="277" y="373"/>
      <point x="276" y="364" type="curve" smooth="yes"/>
    </contour>
  </outline>
</glyph>
<glyph name="w" format="2">
  <advance width="839"/>
  <unicode hex="0077"/>
  <outline>
    <contour>
      <point x="198" y="138" type="line" smooth="yes"/>
      <point x="172" y="61"/>
      <point x="176" y="2"/>
      <point x="222" y="2" type="curve" smooth="yes"/>
      <point x="309" y="2"/>
      <point x="387" y="135"/>
      <point x="424" y="287" type="curve"/>
      <point x="426" y="287" type="line"/>
      <point x="388" y="139"/>
      <point x="316" y="-10"/>
      <point x="194" y="-10" type="curve" smooth="yes"/>
      <point x="93" y="-10"/>
      <point x="62" y="57"/>
      <point x="90" y="141" type="curve" smooth="yes"/>
      <point x="182" y="420" type="line" smooth="yes"/>
      <point x="184" y="426"/>
      <point x="185" y="433"/>
      <point x="185" y="438" type="curve" smooth="yes"/>
      <point x="185" y="449"/>
      <point x="178" y="457"/>
      <point x="165" y="457" type="curve" smooth="yes"/>
      <point x="99" y="457"/>
      <point x="47" y="384"/>
      <point x="12" y="296" type="curve"/>
      <point x="10" y="297" type="line"/>
      <point x="50" y="397"/>
      <point x="107" y="470"/>
      <point x="198" y="470" type="curve" smooth="yes"/>
      <point x="251" y="470"/>
      <point x="280" y="445"/>
      <point x="280" y="398" type="curve" smooth="yes"/>
      <point x="280" y="383"/>
      <point x="277" y="371"/>
      <point x="275" y="364" type="curve" smooth="yes"/>
    </contour>
    <contour>
      <point x="465" y="460" type="line"/>
      <point x="575" y="460" type="line"/>
      <point x="507" y="173" type="line" smooth="yes"/>
      <point x="487" y="89"/>
      <point x="491" y="-2"/>
      <point x="573" y="-2" type="curve" smooth="yes"/>
      <point x="728" y="-2"/>
      <point x="822" y="219"/>
      <point x="822" y="344" type="curve" smooth="yes"/>
      <point x="822" y="373"/>
      <point x="816" y="397"/>
      <point x="812" y="405" type="curve"/>
      <point x="810" y="361"/>
      <point x="778" y="335"/>
      <point x="733" y="335" type="curve" smooth="yes"/>
      <point x="687" y="335"/>
      <point x="664" y="371"/>
      <point x="664" y="402" type="curve" smooth="yes"/>
      <point x="664" y="438"/>
      <point x="694" y="469"/>
      <point x="736" y="469" type="curve" smooth="yes"/>
      <point x="797" y="469"/>
      <point x="824" y="411"/>
      <point x="824" y="344" type="curve" smooth="yes"/>
      <point x="824" y="234"/>
      <point x="742" y="-10"/>
      <point x="553" y="-10" type="curve" smooth="yes"/>
      <point x="462" y="-10"/>
      <point x="361" y="44"/>
      <point x="411" y="236" type="curve"/>
    </contour>
  </outline>
</glyph>
<glyph name="x" format="2">
  <advance width="4432"/>
  <unicode hex="0078"/>
  <outline>
    <contour>
      <point x="2280" y="1928" type="line"/>
      <point x="2760" y="2712"/>
      <point x="3144" y="3760"/>
      <point x="3824" y="3760" type="curve" smooth="yes"/>
      <point x="4344" y="3760"/>
      <point x="4536" y="3376"/>
      <point x="4536" y="3088" type="curve" smooth="yes"/>
      <point x="4536" y="2768"/>
      <point x="4344" y="2544"/>
      <point x="4008" y="2544" type="curve" smooth="yes"/>
      <point x="3656" y="2544"/>
      <point x="3504" y="2832"/>
      <point x="3504" y="3064" type="curve" smooth="yes"/>
      <point x="3504" y="3312"/>
      <point x="3704" y="3568"/>
      <point x="4008" y="3568" type="curve" smooth="yes"/>
      <point x="4248" y="3568"/>
      <point x="4424" y="3424"/>
      <point x="4504" y="3224" type="curve"/>
      <point x="4456" y="3472"/>
      <point x="4240" y="3744"/>
      <point x="3832" y="3744" type="curve" smooth="yes"/>
      <point x="3160" y="3744"/>
      <point x="2784" y="2704"/>
      <point x="2304" y="1920" type="curve"/>
    </contour>
    <contour>
      <point x="2256" y="2128" type="line"/>
      <point x="1632" y="1088"/>
      <point x="1160" y="-80"/>
      <point x="480" y="-80" type="curve" smooth="yes"/>
      <point x="-40" y="-80"/>
      <point x="-232" y="304"/>
      <point x="-232" y="592" type="curve" smooth="yes"/>
      <point x="-232" y="912"/>
      <point x="-40" y="1136"/>
      <point x="296" y="1136" type="curve" smooth="yes"/>
      <point x="648" y="1136"/>
      <point x="800" y="848"/>
      <point x="800" y="616" type="curve" smooth="yes"/>
      <point x="800" y="368"/>
      <point x="600" y="112"/>
      <point x="280" y="112" type="curve" smooth="yes"/>
      <point x="8" y="112"/>
      <point x="-168" y="304"/>
      <point x="-216" y="504" type="curve"/>
      <point x="-152" y="128"/>
      <point x="120" y="-64"/>
      <point x="480" y="-64" type="curve" smooth="yes"/>
      <point x="1144" y="-64"/>
      <point x="1640" y="1120"/>
      <point x="2248" y="2136" type="curve"/>
    </contour>
    <contour>
      <point x="4096" y="872" type="line"/>
      <point x="3832" y="168"/>
      <point x="3456" y="-80"/>
      <point x="2976" y="-80" type="curve" smooth="yes"/>
      <point x="2456" y="-80"/>
      <point x="2208" y="200"/>
      <point x="2080" y="616" type="curve" smooth="yes"/>
      <point x="1880" y="1296"/>
      <point x="1488" y="2880"/>
      <point x="1280" y="3456" type="curve" smooth="yes"/>
      <point x="1248" y="3544"/>
      <point x="1208" y="3648"/>
      <point x="1056" y="3648" type="curve" smooth="yes"/>
      <point x="808" y="3648"/>
      <point x="528" y="3312"/>
      <point x="336" y="2792" type="curve"/>
      <point x="320" y="2792" type="line"/>
      <point x="584" y="3496"/>
      <point x="904" y="3776"/>
      <point x="1464" y="3776" type="curve" smooth="yes"/>
      <point x="1984" y="3776"/>
      <point x="2200" y="3496"/>
      <point x="2328" y="3080" type="curve" smooth="yes"/>
      <point x="2536" y="2368"/>
      <point x="2856" y="1032"/>
      <point x="3136" y="256" type="curve" smooth="yes"/>
      <point x="3168" y="168"/>
      <point x="3264" y="64"/>
      <point x="3376" y="64" type="curve" smooth="yes"/>
      <point x="3576" y="64"/>
      <point x="3864" y="304"/>
      <point x="4080" y="872" type="curve"/>
    </contour>
  </outline>
</glyph>
<glyph name="y" format="2">
  <advance width="4712"/>
  <unicode hex="0079"/>
  <outline>
    <contour>
      <point x="2672" y="-608" type="curve"/>
      <point x="2056" y="456"/>
      <point x="1448" y="2864"/>
      <point x="1232" y="3440" type="curve" smooth="yes"/>
      <point x="1200" y="3528"/>
      <point x="1152" y="3632"/>
      <point x="1008" y="3632" type="curve" smooth="yes"/>
      <point x="752" y="3632"/>
      <point x="440" y="3256"/>
      <point x="280" y="2768" type="curve"/>
      <point x="264" y="2776" type="line"/>
      <point x="528" y="3496"/>
      <point x="896" y="3760"/>
      <point x="1424" y="3760" type="curve" smooth="yes"/>
      <point x="1912" y="3760"/>
      <point x="2152" y="3472"/>
      <point x="2280" y="3056" type="curve" smooth="yes"/>
      <point x="2496" y="2336"/>
      <point x="2784" y="992"/>
      <point x="3312" y="208" type="curve"/>
      <point x="3240" y="112"/>
      <point x="2752" y="-528"/>
    </contour>
    <contour>
      <point x="640" y="-2080" type="curve" smooth="yes"/>
      <point x="40" y="-2080"/>
      <point x="-304" y="-1664"/>
      <point x="-304" y="-1160" type="curve" smooth="yes"/>
      <point x="-304" y="-848"/>
      <point x="-80" y="-552"/>
      <point x="256" y="-552" type="curve" smooth="yes"/>
      <point x="504" y="-552"/>
      <point x="768" y="-712"/>
      <point x="768" y="-1048" type="curve" smooth="yes"/>
      <point x="768" y="-1344"/>
      <point x="544" y="-1544"/>
      <point x="264" y="-1544" type="curve" smooth="yes"/>
      <point x="-24" y="-1544"/>
      <point x="-240" y="-1384"/>
      <point x="-288" y="-1176" type="curve"/>
      <point x="-280" y="-1680"/>
      <point x="72" y="-2064"/>
      <point x="640" y="-2064" type="curve" smooth="yes"/>
      <point x="2128" y="-2064"/>
      <point x="4608" y="1880"/>
      <point x="4608" y="2912" type="curve" smooth="yes"/>
      <point x="4608" y="3136"/>
      <point x="4544" y="3312"/>
      <point x="4464" y="3416" type="curve"/>
      <point x="4552" y="2920"/>
      <point x="4208" y="2720"/>
      <point x="3952" y="2720" type="curve" smooth="yes"/>
      <point x="3584" y="2720"/>
      <point x="3376" y="3008"/>
      <point x="3376" y="3240" type="curve" smooth="yes"/>
      <point x="3376" y="3512"/>
      <point x="3600" y="3760"/>
      <point x="3944" y="3760" type="curve" smooth="yes"/>
      <point x="4448" y="3760"/>
      <point x="4624" y="3272"/>
      <point x="4624" y="2912" type="curve" smooth="yes"/>
      <point x="4624" y="1872"/>
      <point x="2136" y="-2080"/>
    </contour>
  </outline>
</glyph>
<glyph name="z" format="2">
  <advance width="3296"/>
  <unicode hex="007A"/>
  <outline>
    <contour>
      <point x="184" y="2096" type="line"/>
      <point x="560" y="3696" type="line"/>
      <point x="992" y="3456"/>
      <point x="1472" y="3384"/>
      <point x="1888" y="3384" type="curve" smooth="yes"/>
      <point x="2304" y="3384"/>
      <point x="3024" y="3432"/>
      <point x="3296" y="3680" type="curve"/>
      <point x="3312" y="3664" type="line"/>
      <point x="2688" y="3104"/>
      <point x="1976" y="2616"/>
      <point x="1384" y="2616" type="curve" smooth="yes"/>
      <point x="1032" y="2616"/>
      <point x="616" y="2752"/>
      <point x="408" y="2944" type="curve"/>
      <point x="200" y="2096" type="line"/>
    </contour>
    <contour>
      <point x="-272" y="-56" type="line"/>
      <point x="-320" y="-72" type="line"/>
      <point x="3288" y="3664" type="line"/>
      <point x="3312" y="3664" type="line"/>
    </contour>
    <contour>
      <point x="3176" y="1344" type="curve"/>
      <point x="3128" y="1128"/>
      <point x="2944" y="944"/>
      <point x="2680" y="944" type="curve" smooth="yes"/>
      <point x="2448" y="944"/>
      <point x="2208" y="1136"/>
      <point x="2208" y="1408" type="curve" smooth="yes"/>
      <point x="2208" y="1720"/>
      <point x="2456" y="1880"/>
      <point x="2688" y="1880" type="curve" smooth="yes"/>
      <point x="2960" y="1880"/>
      <point x="3192" y="1712"/>
      <point x="3192" y="1352" type="curve" smooth="yes"/>
      <point x="3192" y="920"/>
      <point x="2720" y="-80"/>
      <point x="1968" y="-80" type="curve" smooth="yes"/>
      <point x="1448" y="-80"/>
      <point x="1232" y="312"/>
      <point x="704" y="312" type="curve" smooth="yes"/>
      <point x="320" y="312"/>
      <point x="-48" y="176"/>
      <point x="-304" y="-80" type="curve"/>
      <point x="-312" y="-72" type="line"/>
      <point x="216" y="408"/>
      <point x="880" y="888"/>
      <point x="1440" y="888" type="curve" smooth="yes"/>
      <point x="1920" y="888"/>
      <point x="2048" y="496"/>
      <point x="2568" y="496" type="curve" smooth="yes"/>
      <point x="2968" y="496"/>
      <point x="3160" y="1040"/>
    </contour>
  </outline>
</glyph>
<glyph name="braceleft" format="2">
  <advance width="2336"/>
  <unicode hex="007B"/>
  <outline>
    <contour>
      <point x="3216" y="6240" type="curve"/>
      <point x="3216" y="6192" type="line"/>
      <point x="2528" y="6192"/>
      <point x="2128" y="5616"/>
      <point x="2128" y="4936" type="curve" smooth="yes"/>
      <point x="2128" y="4488"/>
      <point x="2208" y="4248"/>
      <point x="2208" y="3640" type="curve" smooth="yes"/>
      <point x="2208" y="2928"/>
      <point x="1320" y="2592"/>
      <point x="680" y="2512" type="curve"/>
      <point x="680" y="2552" type="line"/>
      <point x="920" y="2632"/>
      <point x="1376" y="2848"/>
      <point x="1376" y="3256" type="curve" smooth="yes"/>
      <point x="1376" y="3696"/>
      <point x="1216" y="3872"/>
      <point x="1216" y="4568" type="curve" smooth="yes"/>
      <point x="1216" y="5552"/>
      <point x="1896" y="6240"/>
    </contour>
    <contour>
      <point x="1536" y="-1200" type="line"/>
      <point x="472" y="-1200"/>
      <point x="40" y="-952"/>
      <point x="40" y="-272" type="curve" smooth="yes"/>
      <point x="40" y="680"/>
      <point x="1080" y="1456"/>
      <point x="1080" y="1960" type="curve" smooth="yes"/>
      <point x="1080" y="2288"/>
      <point x="920" y="2416"/>
      <point x="680" y="2496" type="curve"/>
      <point x="680" y="2536" type="line"/>
      <point x="1320" y="2456"/>
      <point x="1696" y="2280"/>
      <point x="1696" y="1728" type="curve" smooth="yes"/>
      <point x="1696" y="928"/>
      <point x="944" y="240"/>
      <point x="944" y="-368" type="curve" smooth="yes"/>
      <point x="944" y="-776"/>
      <point x="1040" y="-1152"/>
      <point x="1536" y="-1152" type="curve"/>
    </contour>
  </outline>
</glyph>
<glyph name="sterling" format="2">
  <advance width="2560"/>
  <unicode hex="00A3"/>
  <outline>
    <contour>
      <point x="2526" y="767" type="line"/>
      <point x="2444" y="163"/>
      <point x="2073" y="-122"/>
      <point x="1647" y="-122" type="curve" smooth="yes"/>
      <point x="1085" y="-122"/>
      <point x="842" y="122"/>
      <point x="584" y="122" type="curve" smooth="yes"/>
      <point x="406" y="122"/>
      <point x="216" y="40"/>
      <point x="144" y="-82" type="curve"/>
      <point x="136" y="-82" type="line"/>
      <point x="268" y="263"/>
      <point x="591" y="521"/>
      <point x="981" y="521" type="curve" smooth="yes"/>
      <point x="1391" y="521"/>
      <point x="1451" y="381"/>
      <point x="1835" y="381" type="curve" smooth="yes"/>
      <point x="2165" y="381"/>
      <point x="2436" y="431"/>
      <point x="2518" y="767" type="curve"/>
    </contour>
    <contour>
      <point x="2212" y="1658" type="line"/>
      <point x="2212" y="1650" type="line"/>
      <point x="266" y="1650" type="line"/>
      <point x="266" y="1658" type="line"/>
    </contour>
    <contour>
      <point x="771" y="2098" type="curve" smooth="yes"/>
      <point x="771" y="2712"/>
      <point x="1344" y="3112"/>
      <point x="2086" y="3112" type="curve" smooth="yes"/>
      <point x="2657" y="3112"/>
      <point x="2922" y="2777"/>
      <point x="2922" y="2421" type="curve" smooth="yes"/>
      <point x="2922" y="2222"/>
      <point x="2777" y="2106"/>
      <point x="2624" y="2106" type="curve" smooth="yes"/>
      <point x="2481" y="2106"/>
      <point x="2328" y="2201"/>
      <point x="2328" y="2396" type="curve" smooth="yes"/>
      <point x="2328" y="2570"/>
      <point x="2475" y="2673"/>
      <point x="2624" y="2673" type="curve" smooth="yes"/>
      <point x="2781" y="2673"/>
      <point x="2894" y="2554"/>
      <point x="2914" y="2448" type="curve"/>
      <point x="2908" y="2784"/>
      <point x="2635" y="3093"/>
      <point x="2158" y="3093" type="curve" smooth="yes"/>
      <point x="1629" y="3093"/>
      <point x="1368" y="2587"/>
      <point x="1368" y="2283" type="curve" smooth="yes"/>
      <point x="1368" y="2011"/>
      <point x="1454" y="1854"/>
      <point x="1454" y="1516" type="curve" smooth="yes"/>
      <point x="1454" y="718"/>
      <point x="96" y="614"/>
      <point x="140" y="-82" type="curve"/>
      <point x="132" y="-82" type="line"/>
      <point x="64" y="488"/>
      <point x="897" y="798"/>
      <point x="897" y="1274" type="curve" smooth="yes"/>
      <point x="897" y="1506"/>
      <point x="771" y="1750"/>
    </contour>
  </outline>
</glyph>
<glyph name="section" format="2">
  <advance width="1940"/>
  <unicode hex="00A7"/>
  <outline>
    <contour>
      <point x="875" y="2617" type="curve" smooth="yes"/>
      <point x="875" y="2173"/>
      <point x="1907" y="2274"/>
      <point x="1907" y="1658" type="curve" smooth="yes"/>
      <point x="1907" y="1332"/>
      <point x="1553" y="1193"/>
      <point x="1335" y="1050" type="curve"/>
      <point x="1329" y="1050" type="line"/>
      <point x="1469" y="1140"/>
      <point x="1574" y="1262"/>
      <point x="1574" y="1426" type="curve" smooth="yes"/>
      <point x="1574" y="1870"/>
      <point x="581" y="1710"/>
      <point x="581" y="2414" type="curve" smooth="yes"/>
      <point x="581" y="2840"/>
      <point x="1015" y="3112"/>
      <point x="1425" y="3112" type="curve" smooth="yes"/>
      <point x="1827" y="3112"/>
      <point x="2070" y="2844"/>
      <point x="2070" y="2574" type="curve" smooth="yes"/>
      <point x="2070" y="2324"/>
      <point x="1954" y="2212"/>
      <point x="1790" y="2212" type="curve" smooth="yes"/>
      <point x="1647" y="2212"/>
      <point x="1538" y="2304"/>
      <point x="1538" y="2472" type="curve" smooth="yes"/>
      <point x="1538" y="2614"/>
      <point x="1662" y="2717"/>
      <point x="1802" y="2717" type="curve" smooth="yes"/>
      <point x="1949" y="2717"/>
      <point x="2040" y="2620"/>
      <point x="2062" y="2576" type="curve"/>
      <point x="2055" y="2825"/>
      <point x="1850" y="3101"/>
      <point x="1425" y="3101" type="curve" smooth="yes"/>
      <point x="1125" y="3101"/>
      <point x="875" y="2881"/>
    </contour>
    <contour>
      <point x="1679" y="694" type="curve" smooth="yes"/>
      <point x="1679" y="268"/>
      <point x="1240" y="-40"/>
      <point x="748" y="-40" type="curve" smooth="yes"/>
      <point x="388" y="-40"/>
      <point x="15" y="135"/>
      <point x="15" y="529" type="curve" smooth="yes"/>
      <point x="15" y="707"/>
      <point x="146" y="875"/>
      <point x="330" y="875" type="curve" smooth="yes"/>
      <point x="473" y="875"/>
      <point x="583" y="788"/>
      <point x="583" y="630" type="curve" smooth="yes"/>
      <point x="583" y="478"/>
      <point x="458" y="370"/>
      <point x="288" y="370" type="curve" smooth="yes"/>
      <point x="152" y="370"/>
      <point x="50" y="443"/>
      <point x="24" y="542" type="curve"/>
      <point x="24" y="140"/>
      <point x="382" y="-29"/>
      <point x="748" y="-29" type="curve" smooth="yes"/>
      <point x="1170" y="-29"/>
      <point x="1358" y="273"/>
      <point x="1358" y="465" type="curve" smooth="yes"/>
      <point x="1358" y="931"/>
      <point x="282" y="807"/>
      <point x="282" y="1393" type="curve" smooth="yes"/>
      <point x="282" y="1687"/>
      <point x="616" y="1942"/>
      <point x="806" y="2038" type="curve"/>
      <point x="814" y="2038" type="line"/>
      <point x="746" y="1988"/>
      <point x="669" y="1866"/>
      <point x="669" y="1698" type="curve" smooth="yes"/>
      <point x="669" y="1192"/>
      <point x="1679" y="1399"/>
    </contour>
  </outline>
</glyph>
<glyph name="logicalnot" format="2">
  <advance width="486"/>
  <unicode hex="00AC"/>
  <outline>
    <contour>
      <point x="513" y="613" type="line"/>
      <point x="150" y="613" type="line"/>
      <point x="150" y="615" type="line"/>
      <point x="516" y="615" type="line"/>
      <point x="471" y="413" type="line"/>
      <point x="469" y="413" type="line"/>
    </contour>
  </outline>
</glyph>
<glyph name="degree" format="2">
  <advance width="320"/>
  <unicode hex="00B0"/>
  <outline>
    <contour>
      <point x="194" y="680" type="curve" smooth="yes"/>
      <point x="194" y="746"/>
      <point x="248" y="800"/>
      <point x="314" y="800" type="curve" smooth="yes"/>
      <point x="380" y="800"/>
      <point x="434" y="746"/>
      <point x="434" y="680" type="curve" smooth="yes"/>
      <point x="434" y="614"/>
      <point x="380" y="560"/>
      <point x="314" y="560" type="curve" smooth="yes"/>
      <point x="248" y="560"/>
      <point x="194" y="614"/>
    </contour>
    <contour>
      <point x="214" y="680" type="curve" smooth="yes"/>
      <point x="214" y="623"/>
      <point x="257" y="580"/>
      <point x="314" y="580" type="curve" smooth="yes"/>
      <point x="371" y="580"/>
      <point x="414" y="623"/>
      <point x="414" y="680" type="curve" smooth="yes"/>
      <point x="414" y="737"/>
      <point x="371" y="780"/>
      <point x="314" y="780" type="curve" smooth="yes"/>
      <point x="257" y="780"/>
      <point x="214" y="737"/>
    </contour>
  </outline>
</glyph>
<glyph name="mu" format="2">
  <advance width="5008"/>
  <unicode hex="00B5"/>
  <outline>
    <contour>
      <point x="80" y="-728" type="line" smooth="yes"/>
      <point x="-96" y="-1488"/>
      <point x="48" y="-2056"/>
      <point x="760" y="-2064" type="curve"/>
      <point x="1000" y="-2048" type="line"/>
      <point x="784" y="-2024"/>
      <point x="504" y="-1896"/>
      <point x="504" y="-1528" type="curve" smooth="yes"/>
      <point x="504" y="-1232"/>
      <point x="752" y="-1008"/>
      <point x="1016" y="-1008" type="curve" smooth="yes"/>
      <point x="1280" y="-1008"/>
      <point x="1536" y="-1216"/>
      <point x="1536" y="-1520" type="curve" smooth="yes"/>
      <point x="1536" y="-1832"/>
      <point x="1344" y="-2080"/>
      <point x="760" y="-2080" type="curve" smooth="yes"/>
      <point x="40" y="-2080"/>
      <point x="-112" y="-1488"/>
      <point x="64" y="-728" type="curve" smooth="yes"/>
      <point x="824" y="2568" type="line"/>
      <point x="840" y="2568" type="line"/>
    </contour>
    <component base="u"/>
  </outline>
</glyph>
<glyph name="cedilla" format="2">
  <advance width="550"/>
  <unicode hex="00B8"/>
  <outline>
    <contour>
      <point x="237" y="-79" type="line"/>
      <point x="357" y="41" type="line"/>
      <point x="359" y="41" type="line"/>
      <point x="239" y="-79" type="line"/>
    </contour>
    <contour>
      <point x="237" y="-79" type="curve"/>
      <point x="279" y="-39" type="line"/>
      <point x="362" y="-39"/>
      <point x="422" y="-58"/>
      <point x="422" y="-110" type="curve" smooth="yes"/>
      <point x="422" y="-174"/>
      <point x="332" y="-220"/>
      <point x="225" y="-220" type="curve"/>
      <point x="225" y="-218" type="line"/>
      <point x="284" y="-218"/>
      <point x="331" y="-184"/>
      <point x="331" y="-130" type="curve" smooth="yes"/>
      <point x="331" y="-89"/>
      <point x="298" y="-79"/>
    </contour>
  </outline>
</glyph>
<glyph name="AE" format="2">
  <advance width="4157"/>
  <unicode hex="00C6"/>
  <outline>
    <contour>
      <point x="2854" y="3072" type="line"/>
      <point x="4543" y="3072" type="line"/>
      <point x="4346" y="2232" type="line"/>
      <point x="4338" y="2232" type="line"/>
      <point x="4410" y="2670"/>
      <point x="4234" y="3064"/>
      <point x="3754" y="3064" type="curve" smooth="yes"/>
      <point x="2854" y="3064" type="line"/>
    </contour>
    <contour>
      <point x="3033" y="1586" type="curve" smooth="yes"/>
      <point x="2753" y="1586" type="line"/>
      <point x="2753" y="1594" type="line"/>
      <point x="3033" y="1594" type="line" smooth="yes"/>
      <point x="3267" y="1594"/>
      <point x="3538" y="1776"/>
      <point x="3630" y="2050" type="curve"/>
      <point x="3638" y="2050" type="line"/>
      <point x="3422" y="1108" type="line"/>
      <point x="3414" y="1108" type="line"/>
      <point x="3445" y="1382"/>
      <point x="3267" y="1586"/>
    </contour>
    <contour>
      <point x="3871" y="0" type="line"/>
      <point x="1638" y="0" type="line"/>
      <point x="1638" y="8" type="line"/>
      <point x="3042" y="8" type="line" smooth="yes"/>
      <point x="3604" y="8"/>
      <point x="3927" y="402"/>
      <point x="4076" y="922" type="curve"/>
      <point x="4084" y="922" type="line"/>
    </contour>
    <contour>
      <point x="2700" y="3072" type="line"/>
      <point x="3211" y="3072" type="line"/>
      <point x="2499" y="0" type="line"/>
      <point x="1986" y="0" type="line"/>
    </contour>
    <contour>
      <point x="1086" y="1008" type="line"/>
      <point x="2274" y="1008" type="line"/>
      <point x="2274" y="1000" type="line"/>
      <point x="1086" y="1000" type="line"/>
    </contour>
    <contour>
      <point x="2692" y="3072" type="line"/>
      <point x="2704" y="3072" type="line"/>
      <point x="308" y="0" type="line"/>
      <point x="294" y="0" type="line"/>
    </contour>
    <contour>
      <point x="-102" y="8" type="line"/>
      <point x="798" y="8" type="line"/>
      <point x="798" y="0" type="line"/>
      <point x="-102" y="0" type="line"/>
    </contour>
  </outline>
</glyph>
<glyph name="multiply" format="2">
  <advance width="4240"/>
  <unicode hex="00D7"/>
  <outline>
    <contour>
      <point x="3272" y="1352" type="line"/>
      <point x="1472" y="3672" type="line"/>
      <point x="1488" y="3688" type="line"/>
      <point x="3288" y="1368" type="line"/>
    </contour>
    <contour>
      <point x="944" y="1376" type="line"/>
      <point x="3784" y="3696" type="line"/>
      <point x="3800" y="3680" type="line"/>
      <point x="960" y="1360" type="line"/>
    </contour>
  </outline>
</glyph>
<glyph name="eth" format="2">
  <advance width="580"/>
  <unicode hex="00F0"/>
  <outline>
    <contour>
      <point x="220" y="630" type="line"/>
      <point x="648" y="630" type="line"/>
      <point x="648" y="628" type="line"/>
      <point x="220" y="628" type="line"/>
    </contour>
    <contour>
      <point x="577" y="396" type="curve" smooth="yes"/>
      <point x="577" y="186"/>
      <point x="419" y="-10"/>
      <point x="246" y="-10" type="curve" smooth="yes"/>
      <point x="119" y="-10"/>
      <point x="40" y="44"/>
      <point x="40" y="174" type="curve" smooth="yes"/>
      <point x="40" y="380"/>
      <point x="212" y="490"/>
      <point x="333" y="490" type="curve" smooth="yes"/>
      <point x="428" y="490"/>
      <point x="445" y="421"/>
      <point x="443" y="304" type="curve"/>
      <point x="440" y="346" type="line"/>
      <point x="440" y="410"/>
      <point x="421" y="482"/>
      <point x="359" y="482" type="curve" smooth="yes"/>
      <point x="256" y="482"/>
      <point x="162" y="298"/>
      <point x="162" y="138" type="curve" smooth="yes"/>
      <point x="162" y="66"/>
      <point x="177" y="-8"/>
      <point x="246" y="-8" type="curve" smooth="yes"/>
      <point x="345" y="-8"/>
      <point x="440" y="222"/>
      <point x="440" y="346" type="curve"/>
      <point x="440" y="346" type="line"/>
      <point x="442" y="556"/>
      <point x="449" y="758"/>
      <point x="237" y="758" type="curve"/>
      <point x="237" y="760" type="line"/>
      <point x="470" y="760"/>
      <point x="577" y="595"/>
    </contour>
  </outline>
</glyph>
<glyph name="thorn" format="2">
  <advance width="4704"/>
  <unicode hex="00FE"/>
  <outline>
    <contour>
      <point x="1560" y="1168" type="curve" smooth="yes"/>
      <point x="1560" y="616"/>
      <point x="1712" y="88"/>
      <point x="2088" y="88" type="curve" smooth="yes"/>
      <point x="2760" y="88"/>
      <point x="3480" y="1536"/>
      <point x="3480" y="2608" type="curve" smooth="yes"/>
      <point x="3480" y="3216"/>
      <point x="3280" y="3624"/>
      <point x="2920" y="3624" type="curve" smooth="yes"/>
      <point x="2104" y="3624"/>
      <point x="1560" y="2064"/>
    </contour>
    <contour>
      <point x="1544" y="1168" type="curve" smooth="yes"/>
      <point x="1544" y="2032"/>
      <point x="2048" y="3760"/>
      <point x="3176" y="3760" type="curve" smooth="yes"/>
      <point x="3728" y="3760"/>
      <point x="4472" y="3440"/>
      <point x="4472" y="2400" type="curve" smooth="yes"/>
      <point x="4472" y="800"/>
      <point x="3192" y="-80"/>
      <point x="2384" y="-80" type="curve" smooth="yes"/>
      <point x="1776" y="-80"/>
      <point x="1544" y="432"/>
    </contour>
    <contour>
      <point x="-632" y="-1984" type="line"/>
      <point x="1328" y="-1984" type="line"/>
      <point x="1328" y="-2000" type="line"/>
      <point x="-632" y="-2000" type="line"/>
    </contour>
    <contour>
      <point x="1712" y="5984" type="line"/>
      <point x="1144" y="5984" type="line"/>
      <point x="1144" y="6000" type="line"/>
      <point x="2600" y="6000" type="line"/>
      <point x="1768" y="2336" type="line"/>
      <point x="1616" y="1800" type="line"/>
      <point x="1552" y="1352" type="line"/>
      <point x="768" y="-2000" type="line"/>
      <point x="-112" y="-2000" type="line"/>
    </contour>
  </outline>
</glyph>
<glyph name="kgreenlandic" format="2">
  <advance width="576"/>
  <unicode hex="0138"/>
  <outline>
    <contour>
      <point x="556" y="163" type="line"/>
      <point x="518" y="63"/>
      <point x="457" y="-10"/>
      <point x="372" y="-10" type="curve" smooth="yes"/>
      <point x="319" y="-10"/>
      <point x="291" y="13"/>
      <point x="291" y="67" type="curve" smooth="yes"/>
      <point x="291" y="72"/>
      <point x="292" y="83"/>
      <point x="293" y="89" type="curve" smooth="yes"/>
      <point x="304" y="140" type="line" smooth="yes"/>
      <point x="317" y="198"/>
      <point x="352" y="285"/>
      <point x="286" y="285" type="curve" smooth="yes"/>
      <point x="223" y="285"/>
      <point x="207" y="226"/>
      <point x="199" y="190" type="curve"/>
      <point x="197" y="190" type="line"/>
      <point x="216" y="277"/>
      <point x="256" y="290"/>
      <point x="303" y="290" type="curve" smooth="yes"/>
      <point x="372" y="290"/>
      <point x="436" y="251"/>
      <point x="406" y="121" type="curve" smooth="yes"/>
      <point x="384" y="26" type="line" smooth="yes"/>
      <point x="384" y="24"/>
      <point x="384" y="19"/>
      <point x="384" y="17" type="curve" smooth="yes"/>
      <point x="384" y="6"/>
      <point x="391" y="1"/>
      <point x="404" y="1" type="curve" smooth="yes"/>
      <point x="461" y="1"/>
      <point x="521" y="71"/>
      <point x="555" y="164" type="curve"/>
    </contour>
    <contour>
      <point x="187" y="323" type="curve"/>
      <point x="189" y="321" type="line"/>
      <point x="191" y="270"/>
      <point x="216" y="244"/>
      <point x="252" y="244" type="curve" smooth="yes"/>
      <point x="298" y="244"/>
      <point x="318" y="296"/>
      <point x="344" y="360" type="curve" smooth="yes"/>
      <point x="372" y="428"/>
      <point x="409" y="470"/>
      <point x="461" y="470" type="curve" smooth="yes"/>
      <point x="510" y="470"/>
      <point x="546" y="437"/>
      <point x="546" y="381" type="curve" smooth="yes"/>
      <point x="546" y="334"/>
      <point x="517" y="313"/>
      <point x="486" y="313" type="curve" smooth="yes"/>
      <point x="455" y="313"/>
      <point x="428" y="336"/>
      <point x="428" y="371" type="curve" smooth="yes"/>
      <point x="428" y="403"/>
      <point x="453" y="426"/>
      <point x="485" y="426" type="curve" smooth="yes"/>
      <point x="518" y="426"/>
      <point x="538" y="406"/>
      <point x="544" y="385" type="curve"/>
      <point x="542" y="434"/>
      <point x="511" y="468"/>
      <point x="461" y="468" type="curve" smooth="yes"/>
      <point x="411" y="468"/>
      <point x="374" y="428"/>
      <point x="346" y="359" type="curve" smooth="yes"/>
      <point x="318" y="291"/>
      <point x="298" y="242"/>
      <point x="252" y="242" type="curve" smooth="yes"/>
      <point x="215" y="242"/>
      <point x="187" y="271"/>
    </contour>
    <contour>
      <point x="151" y="458" type="line"/>
      <point x="62" y="458" type="line"/>
      <point x="62" y="460" type="line"/>
      <point x="262" y="460" type="line"/>
      <point x="155" y="0" type="line"/>
      <point x="45" y="0" type="line"/>
    </contour>
  </outline>
</glyph>
<glyph name="lslash" format="2">
  <advance width="327"/>
  <unicode hex="0142"/>
  <outline>
    <contour>
      <point x="33" y="392" type="line"/>
      <point x="342" y="580" type="line"/>
      <point x="342" y="578" type="line"/>
      <point x="33" y="390" type="line"/>
    </contour>
    <component base="l"/>
  </outline>
</glyph>
<glyph name="circumflex" format="2">
  <advance width="1678"/>
  <unicode hex="02C6"/>
  <outline>
    <contour>
      <point x="1370" y="2919" type="line"/>
      <point x="660" y="2648" type="line"/>
      <point x="656" y="2653" type="line"/>
      <point x="1227" y="3154" type="line"/>
      <point x="1534" y="3154" type="line"/>
      <point x="1924" y="2653" type="line"/>
      <point x="1920" y="2648" type="line"/>
    </contour>
  </outline>
</glyph>
<glyph name="ring" format="2">
  <advance width="320"/>
  <unicode hex="02DA"/>
  <outline>
    <contour>
      <point x="185" y="680" type="curve" smooth="yes"/>
      <point x="185" y="731"/>
      <point x="225" y="770"/>
      <point x="280" y="770" type="curve" smooth="yes"/>
      <point x="335" y="770"/>
      <point x="375" y="731"/>
      <point x="375" y="680" type="curve" smooth="yes"/>
      <point x="375" y="629"/>
      <point x="335" y="590"/>
      <point x="280" y="590" type="curve" smooth="yes"/>
      <point x="225" y="590"/>
      <point x="185" y="629"/>
    </contour>
    <contour>
      <point x="229" y="653" type="curve" smooth="yes"/>
      <point x="229" y="617"/>
      <point x="240" y="592"/>
      <point x="273" y="592" type="curve" smooth="yes"/>
      <point x="308" y="592"/>
      <point x="331" y="667"/>
      <point x="331" y="707" type="curve" smooth="yes"/>
      <point x="331" y="743"/>
      <point x="320" y="768"/>
      <point x="287" y="768" type="curve" smooth="yes"/>
      <point x="252" y="768"/>
      <point x="229" y="693"/>
    </contour>
  </outline>
</glyph>
<glyph name="tilde" format="2">
  <advance width="3584"/>
  <unicode hex="02DC"/>
  <outline>
    <contour>
      <point x="1832" y="5304" type="curve" smooth="yes"/>
      <point x="1520" y="5304"/>
      <point x="1336" y="5184"/>
      <point x="1176" y="4800" type="curve"/>
      <point x="1160" y="4800" type="line"/>
      <point x="1320" y="5480"/>
      <point x="1728" y="5864"/>
      <point x="2168" y="5864" type="curve" smooth="yes"/>
      <point x="2728" y="5864"/>
      <point x="3064" y="5232"/>
      <point x="3512" y="5232" type="curve" smooth="yes"/>
      <point x="3824" y="5232"/>
      <point x="4008" y="5352"/>
      <point x="4168" y="5736" type="curve"/>
      <point x="4184" y="5736" type="line"/>
      <point x="4024" y="4976"/>
      <point x="3696" y="4672"/>
      <point x="3256" y="4672" type="curve" smooth="yes"/>
      <point x="2640" y="4672"/>
      <point x="2336" y="5304"/>
    </contour>
  </outline>
</glyph>
<glyph name="uni1E9E" format="2">
  <advance width="3392"/>
  <unicode hex="1E9E"/>
  <outline>
    <contour>
      <point x="1293" y="578" type="curve" smooth="yes"/>
      <point x="1293" y="772"/>
      <point x="1413" y="906"/>
      <point x="1587" y="906" type="curve" smooth="yes"/>
      <point x="1740" y="906"/>
      <point x="1860" y="803"/>
      <point x="1860" y="635" type="curve" smooth="yes"/>
      <point x="1860" y="483"/>
      <point x="1714" y="368"/>
      <point x="1575" y="368" type="curve" smooth="yes"/>
      <point x="1418" y="368"/>
      <point x="1335" y="476"/>
      <point x="1305" y="543" type="curve"/>
      <point x="1314" y="242"/>
      <point x="1532" y="-16"/>
      <point x="1975" y="-16" type="curve" smooth="yes"/>
      <point x="2494" y="-16"/>
      <point x="2729" y="516"/>
      <point x="2729" y="962" type="curve" smooth="yes"/>
      <point x="2729" y="1286"/>
      <point x="2619" y="1654"/>
      <point x="2163" y="1654" type="curve"/>
      <point x="2163" y="1662" type="line"/>
      <point x="2966" y="1662"/>
      <point x="3271" y="1422"/>
      <point x="3271" y="952" type="curve" smooth="yes"/>
      <point x="3271" y="297"/>
      <point x="2687" y="-40"/>
      <point x="2047" y="-40" type="curve" smooth="yes"/>
      <point x="1483" y="-40"/>
      <point x="1293" y="265"/>
    </contour>
    <contour>
      <point x="-102" y="8" type="line"/>
      <point x="1157" y="8" type="line"/>
      <point x="1157" y="0" type="line"/>
      <point x="-102" y="0" type="line"/>
    </contour>
    <contour>
      <point x="2163" y="1658" type="curve"/>
      <point x="2163" y="1668" type="line"/>
      <point x="2845" y="1668"/>
      <point x="2975" y="2272"/>
      <point x="2975" y="2554" type="curve" smooth="yes"/>
      <point x="2975" y="2787"/>
      <point x="2876" y="3104"/>
      <point x="2368" y="3104" type="curve" smooth="yes"/>
      <point x="1666" y="3104"/>
      <point x="1358" y="2456"/>
      <point x="1209" y="1817" type="curve" smooth="yes"/>
      <point x="788" y="0" type="line"/>
      <point x="266" y="0" type="line"/>
      <point x="691" y="1857" type="line" smooth="yes"/>
      <point x="870" y="2646"/>
      <point x="1495" y="3112"/>
      <point x="2378" y="3112" type="curve" smooth="yes"/>
      <point x="3138" y="3112"/>
      <point x="3522" y="2873"/>
      <point x="3522" y="2492" type="curve" smooth="yes"/>
      <point x="3522" y="2113"/>
      <point x="3140" y="1658"/>
    </contour>
  </outline>
</glyph>
<glyph name="Euro" format="2">
  <advance width="5856"/>
  <unicode hex="20AC"/>
  <outline>
    <contour>
      <point x="6152" y="5040" type="curve"/>
      <point x="6064" y="5488"/>
      <point x="5544" y="6056"/>
      <point x="4760" y="6056" type="curve" smooth="yes"/>
      <point x="3248" y="6056"/>
      <point x="2280" y="3736"/>
      <point x="2280" y="1832" type="curve" smooth="yes"/>
      <point x="2280" y="920"/>
      <point x="2560" y="-40"/>
      <point x="3368" y="-40" type="curve" smooth="yes"/>
      <point x="4184" y="-40"/>
      <point x="5056" y="648"/>
      <point x="5336" y="1424" type="curve"/>
      <point x="5352" y="1424" type="line"/>
      <point x="5064" y="648"/>
      <point x="4208" y="-80"/>
      <point x="3240" y="-80" type="curve" smooth="yes"/>
      <point x="2240" y="-80"/>
      <point x="1208" y="584"/>
      <point x="1208" y="2200" type="curve" smooth="yes"/>
      <point x="1208" y="4328"/>
      <point x="2848" y="6080"/>
      <point x="4680" y="6080" type="curve" smooth="yes"/>
      <point x="5656" y="6080"/>
      <point x="6184" y="5344"/>
      <point x="6184" y="4880" type="curve" smooth="yes"/>
      <point x="6184" y="4504"/>
      <point x="5920" y="4304"/>
      <point x="5648" y="4304" type="curve" smooth="yes"/>
      <point x="5416" y="4304"/>
      <point x="5112" y="4464"/>
      <point x="5112" y="4832" type="curve" smooth="yes"/>
      <point x="5112" y="5160"/>
      <point x="5344" y="5352"/>
      <point x="5688" y="5352" type="curve" smooth="yes"/>
      <point x="5928" y="5352"/>
      <point x="6104" y="5160"/>
    </contour>
    <component base="equal" xOffset="-240" yOffset="-560"/>
  </outline>
</glyph>
<glyph name="uni2116" format="2">
  <advance width="1110"/>
  <unicode hex="2116"/>
  <outline>
    <contour>
      <point x="816" y="316" type="line"/>
      <point x="1062" y="316" type="line"/>
      <point x="1061" y="314" type="line"/>
      <point x="815" y="314" type="line"/>
    </contour>
    <contour>
      <point x="1040" y="760" type="curve" smooth="yes"/>
      <point x="1125" y="760"/>
      <point x="1179" y="714"/>
      <point x="1179" y="629" type="curve" smooth="yes"/>
      <point x="1179" y="476"/>
      <point x="1068" y="380"/>
      <point x="953" y="380" type="curve" smooth="yes"/>
      <point x="868" y="380"/>
      <point x="814" y="426"/>
      <point x="814" y="511" type="curve" smooth="yes"/>
      <point x="814" y="664"/>
      <point x="925" y="760"/>
    </contour>
    <contour>
      <point x="904" y="470" type="curve" smooth="yes"/>
      <point x="904" y="404"/>
      <point x="922" y="382"/>
      <point x="957" y="382" type="curve" smooth="yes"/>
      <point x="1026" y="382"/>
      <point x="1088" y="548"/>
      <point x="1088" y="670" type="curve" smooth="yes"/>
      <point x="1088" y="736"/>
      <point x="1071" y="758"/>
      <point x="1036" y="758" type="curve" smooth="yes"/>
      <point x="967" y="758"/>
      <point x="904" y="592"/>
    </contour>
    <component base="N" xOffset="26"/>
  </outline>
</glyph>
<glyph name="uniFB00" format="2">
  <advance width="5272"/>
  <unicode hex="FB00"/>
  <outline>
    <contour>
      <point x="472" y="3680" type="line"/>
      <point x="5512" y="3680" type="line"/>
      <point x="5512" y="3664" type="line"/>
      <point x="472" y="3664" type="line"/>
    </contour>
    <contour>
      <point x="6512" y="5392" type="curve"/>
      <point x="6464" y="5680"/>
      <point x="6152" y="6064"/>
      <point x="5592" y="6064" type="curve" smooth="yes"/>
      <point x="5032" y="6064"/>
      <point x="4648" y="5296"/>
      <point x="4472" y="4320" type="curve" smooth="yes"/>
      <point x="3760" y="304" type="line" smooth="yes"/>
      <point x="3560" y="-816"/>
      <point x="2792" y="-1680"/>
      <point x="1688" y="-1680" type="curve" smooth="yes"/>
      <point x="928" y="-1680"/>
      <point x="616" y="-1208"/>
      <point x="616" y="-840" type="curve" smooth="yes"/>
      <point x="616" y="-480"/>
      <point x="848" y="-280"/>
      <point x="1136" y="-280" type="curve" smooth="yes"/>
      <point x="1384" y="-280"/>
      <point x="1664" y="-424"/>
      <point x="1664" y="-776" type="curve" smooth="yes"/>
      <point x="1664" y="-1128"/>
      <point x="1400" y="-1296"/>
      <point x="1120" y="-1296" type="curve" smooth="yes"/>
      <point x="920" y="-1296"/>
      <point x="728" y="-1160"/>
      <point x="664" y="-992" type="curve"/>
      <point x="712" y="-1280"/>
      <point x="1032" y="-1664"/>
      <point x="1656" y="-1664" type="curve" smooth="yes"/>
      <point x="2280" y="-1664"/>
      <point x="2664" y="-896"/>
      <point x="2840" y="80" type="curve" smooth="yes"/>
      <point x="3552" y="4096" type="line" smooth="yes"/>
      <point x="3752" y="5216"/>
      <point x="4512" y="6080"/>
      <point x="5552" y="6080" type="curve" smooth="yes"/>
      <point x="6248" y="6080"/>
      <point x="6560" y="5608"/>
      <point x="6560" y="5240" type="curve" smooth="yes"/>
      <point x="6560" y="4880"/>
      <point x="6328" y="4680"/>
      <point x="6040" y="4680" type="curve" smooth="yes"/>
      <point x="5792" y="4680"/>
      <point x="5512" y="4824"/>
      <point x="5512" y="5176" type="curve" smooth="yes"/>
      <point x="5512" y="5528"/>
      <point x="5776" y="5696"/>
      <point x="6056" y="5696" type="curve" smooth="yes"/>
      <point x="6256" y="5696"/>
      <point x="6448" y="5552"/>
    </contour>
    <contour>
      <point x="4224" y="4992" type="curve"/>
      <point x="4176" y="5280"/>
      <point x="3856" y="5664"/>
      <point x="3232" y="5664" type="curve" smooth="yes"/>
      <point x="2608" y="5664"/>
      <point x="2224" y="4896"/>
      <point x="2048" y="3920" type="curve" smooth="yes"/>
      <point x="1336" y="-96" type="line" smooth="yes"/>
      <point x="1136" y="-1216"/>
      <point x="376" y="-2080"/>
      <point x="-664" y="-2080" type="curve" smooth="yes"/>
      <point x="-1360" y="-2080"/>
      <point x="-1672" y="-1608"/>
      <point x="-1672" y="-1240" type="curve" smooth="yes"/>
      <point x="-1672" y="-880"/>
      <point x="-1440" y="-680"/>
      <point x="-1152" y="-680" type="curve" smooth="yes"/>
      <point x="-904" y="-680"/>
      <point x="-624" y="-824"/>
      <point x="-624" y="-1176" type="curve" smooth="yes"/>
      <point x="-624" y="-1528"/>
      <point x="-888" y="-1696"/>
      <point x="-1168" y="-1696" type="curve" smooth="yes"/>
      <point x="-1368" y="-1696"/>
      <point x="-1568" y="-1560"/>
      <point x="-1632" y="-1392" type="curve"/>
      <point x="-1584" y="-1680"/>
      <point x="-1264" y="-2064"/>
      <point x="-704" y="-2064" type="curve" smooth="yes"/>
      <point x="-144" y="-2064"/>
      <point x="240" y="-1296"/>
      <point x="416" y="-320" type="curve" smooth="yes"/>
      <point x="1128" y="3696" type="line" smooth="yes"/>
      <point x="1328" y="4816"/>
      <point x="2088" y="5680"/>
      <point x="3192" y="5680" type="curve" smooth="yes"/>
      <point x="3952" y="5680"/>
      <point x="4264" y="5208"/>
      <point x="4264" y="4840" type="curve" smooth="yes"/>
      <point x="4264" y="4480"/>
      <point x="4032" y="4280"/>
      <point x="3744" y="4280" type="curve" smooth="yes"/>
      <point x="3496" y="4280"/>
      <point x="3216" y="4424"/>
      <point x="3216" y="4776" type="curve" smooth="yes"/>
      <point x="3216" y="5128"/>
      <point x="3480" y="5296"/>
      <point x="3760" y="5296" type="curve" smooth="yes"/>
      <point x="3960" y="5296"/>
      <point x="4160" y="5152"/>
    </contour>
  </outline>
</glyph>
<glyph name="uniFB01" format="2">
  <advance width="631"/>
  <unicode hex="FB01"/>
  <outline>
    <contour>
      <point x="611" y="163" type="line"/>
      <point x="573" y="63"/>
      <point x="510" y="-10"/>
      <point x="423" y="-10" type="curve" smooth="yes"/>
      <point x="370" y="-10"/>
      <point x="343" y="13"/>
      <point x="343" y="67" type="curve" smooth="yes"/>
      <point x="343" y="72"/>
      <point x="344" y="83"/>
      <point x="345" y="89" type="curve" smooth="yes"/>
      <point x="430" y="458" type="line"/>
      <point x="60" y="458" type="line"/>
      <point x="60" y="460" type="line"/>
      <point x="541" y="460" type="line"/>
      <point x="442" y="40" type="line" smooth="yes"/>
      <point x="441" y="34"/>
      <point x="440" y="27"/>
      <point x="440" y="22" type="curve" smooth="yes"/>
      <point x="440" y="11"/>
      <point x="445" y="2"/>
      <point x="458" y="2" type="curve" smooth="yes"/>
      <point x="515" y="2"/>
      <point x="574" y="69"/>
      <point x="610" y="164" type="curve"/>
    </contour>
    <contour>
      <point x="565" y="674" type="curve"/>
      <point x="558" y="713"/>
      <point x="517" y="758"/>
      <point x="431" y="758" type="curve" smooth="yes"/>
      <point x="341" y="758"/>
      <point x="289" y="664"/>
      <point x="267" y="540" type="curve" smooth="yes"/>
      <point x="167" y="-12" type="line" smooth="yes"/>
      <point x="142" y="-152"/>
      <point x="47" y="-260"/>
      <point x="-83" y="-260" type="curve" smooth="yes"/>
      <point x="-170" y="-260"/>
      <point x="-209" y="-201"/>
      <point x="-209" y="-155" type="curve" smooth="yes"/>
      <point x="-209" y="-110"/>
      <point x="-180" y="-85"/>
      <point x="-144" y="-85" type="curve" smooth="yes"/>
      <point x="-113" y="-85"/>
      <point x="-78" y="-103"/>
      <point x="-78" y="-147" type="curve" smooth="yes"/>
      <point x="-78" y="-191"/>
      <point x="-111" y="-212"/>
      <point x="-146" y="-212" type="curve" smooth="yes"/>
      <point x="-171" y="-212"/>
      <point x="-196" y="-195"/>
      <point x="-204" y="-174" type="curve"/>
      <point x="-198" y="-210"/>
      <point x="-158" y="-258"/>
      <point x="-88" y="-258" type="curve" smooth="yes"/>
      <point x="-18" y="-258"/>
      <point x="30" y="-162"/>
      <point x="52" y="-40" type="curve" smooth="yes"/>
      <point x="152" y="512" type="line" smooth="yes"/>
      <point x="177" y="652"/>
      <point x="276" y="760"/>
      <point x="426" y="760" type="curve" smooth="yes"/>
      <point x="531" y="760"/>
      <point x="570" y="703"/>
      <point x="570" y="655" type="curve" smooth="yes"/>
      <point x="570" y="610"/>
      <point x="541" y="585"/>
      <point x="505" y="585" type="curve" smooth="yes"/>
      <point x="474" y="585"/>
      <point x="439" y="603"/>
      <point x="439" y="647" type="curve" smooth="yes"/>
      <point x="439" y="691"/>
      <point x="472" y="712"/>
      <point x="507" y="712" type="curve" smooth="yes"/>
      <point x="532" y="712"/>
      <point x="557" y="694"/>
    </contour>
  </outline>
</glyph>
<glyph name="uniFB02" format="2">
  <advance width="5304"/>
  <unicode hex="FB02"/>
  <outline>
    <contour>
      <point x="5144" y="1304" type="line"/>
      <point x="4840" y="504"/>
      <point x="4336" y="-80"/>
      <point x="3640" y="-80" type="curve" smooth="yes"/>
      <point x="3216" y="-80"/>
      <point x="3000" y="104"/>
      <point x="3000" y="536" type="curve" smooth="yes"/>
      <point x="3000" y="576"/>
      <point x="3008" y="664"/>
      <point x="3016" y="712" type="curve" smooth="yes"/>
      <point x="4192" y="5840" type="line"/>
      <point x="5144" y="6160" type="line"/>
      <point x="3792" y="320" type="line" smooth="yes"/>
      <point x="3784" y="272"/>
      <point x="3776" y="216"/>
      <point x="3776" y="176" type="curve" smooth="yes"/>
      <point x="3776" y="88"/>
      <point x="3816" y="16"/>
      <point x="3920" y="16" type="curve" smooth="yes"/>
      <point x="4392" y="16"/>
      <point x="4872" y="592"/>
      <point x="5136" y="1312" type="curve"/>
    </contour>
    <contour>
      <point x="472" y="3680" type="line"/>
      <point x="3176" y="3680" type="line"/>
      <point x="3176" y="3664" type="line"/>
      <point x="472" y="3664" type="line"/>
    </contour>
    <contour>
      <point x="4448" y="5304" type="curve"/>
      <point x="4424" y="5112"/>
      <point x="4136" y="5048"/>
      <point x="3848" y="5048" type="curve" smooth="yes"/>
      <point x="3544" y="5048"/>
      <point x="3264" y="4976"/>
      <point x="3232" y="5040" type="curve"/>
      <point x="3232" y="5296"/>
      <point x="3280" y="4520"/>
      <point x="3464" y="4520" type="curve"/>
      <point x="3536" y="4208"/>
      <point x="3464" y="4024"/>
      <point x="3296" y="3912" type="curve"/>
      <point x="3088" y="4128"/>
      <point x="2840" y="4544"/>
      <point x="2312" y="4640" type="curve" smooth="yes"/>
      <point x="1800" y="4736"/>
      <point x="1424" y="4192"/>
      <point x="1376" y="3408" type="curve"/>
      <point x="1464" y="3408"/>
      <point x="904" y="-176"/>
      <point x="904" y="-272" type="curve"/>
      <point x="752" y="-1176"/>
      <point x="144" y="-2016"/>
      <point x="-784" y="-2016" type="curve" smooth="yes"/>
      <point x="-1376" y="-2016"/>
      <point x="-1632" y="-1624"/>
      <point x="-1656" y="-1304" type="curve"/>
      <point x="-1632" y="-1112"/>
      <point x="-1352" y="-1048"/>
      <point x="-1064" y="-1048" type="curve" smooth="yes"/>
      <point x="-792" y="-1048"/>
      <point x="-520" y="-976"/>
      <point x="-488" y="-1040" type="curve"/>
      <point x="-488" y="-1296"/>
      <point x="-536" y="-520"/>
      <point x="-720" y="-520" type="curve"/>
      <point x="-792" y="-208"/>
      <point x="-712" y="-32"/>
      <point x="-512" y="88" type="curve"/>
      <point x="-304" y="-128"/>
      <point x="8" y="-544"/>
      <point x="472" y="-640" type="curve" smooth="yes"/>
      <point x="920" y="-736"/>
      <point x="1176" y="-192"/>
      <point x="1224" y="592" type="curve"/>
      <point x="1136" y="592"/>
      <point x="1696" y="4176"/>
      <point x="1696" y="4272" type="curve"/>
      <point x="1848" y="5176"/>
      <point x="2584" y="6016"/>
      <point x="3576" y="6016" type="curve" smooth="yes"/>
      <point x="4216" y="6016"/>
      <point x="4424" y="5648"/>
    </contour>
  </outline>
</glyph>
<glyph name="uniFB03" format="2">
  <advance width="7384"/>
  <unicode hex="FB03"/>
  <outline>
    <contour>
      <point x="7224" y="1304" type="line"/>
      <point x="6920" y="504"/>
      <point x="6416" y="-80"/>
      <point x="5720" y="-80" type="curve" smooth="yes"/>
      <point x="5296" y="-80"/>
      <point x="5080" y="104"/>
      <point x="5080" y="536" type="curve" smooth="yes"/>
      <point x="5080" y="576"/>
      <point x="5088" y="664"/>
      <point x="5096" y="712" type="curve" smooth="yes"/>
      <point x="5776" y="3664" type="line"/>
      <point x="472" y="3664" type="line"/>
      <point x="472" y="3680" type="line"/>
      <point x="6664" y="3680" type="line"/>
      <point x="5872" y="320" type="line" smooth="yes"/>
      <point x="5864" y="272"/>
      <point x="5856" y="216"/>
      <point x="5856" y="176" type="curve" smooth="yes"/>
      <point x="5856" y="88"/>
      <point x="5896" y="16"/>
      <point x="6000" y="16" type="curve" smooth="yes"/>
      <point x="6456" y="16"/>
      <point x="6928" y="552"/>
      <point x="7216" y="1312" type="curve"/>
    </contour>
    <contour>
      <point x="6880" y="5304" type="curve"/>
      <point x="6848" y="5136"/>
      <point x="6552" y="5048"/>
      <point x="6264" y="5048" type="curve" smooth="yes"/>
      <point x="5960" y="5048"/>
      <point x="5656" y="4992"/>
      <point x="5624" y="5040" type="curve"/>
      <point x="5624" y="5296"/>
      <point x="5688" y="4600"/>
      <point x="5872" y="4600" type="curve"/>
      <point x="5944" y="4288"/>
      <point x="5880" y="4104"/>
      <point x="5712" y="3992" type="curve"/>
      <point x="5504" y="4208"/>
      <point x="5192" y="4624"/>
      <point x="4600" y="4720" type="curve" smooth="yes"/>
      <point x="4024" y="4816"/>
      <point x="3776" y="4272"/>
      <point x="3728" y="3488" type="curve"/>
      <point x="3816" y="3488"/>
      <point x="3320" y="224"/>
      <point x="3320" y="128" type="curve"/>
      <point x="3168" y="-776"/>
      <point x="2568" y="-1616"/>
      <point x="1576" y="-1616" type="curve" smooth="yes"/>
      <point x="920" y="-1616"/>
      <point x="664" y="-1224"/>
      <point x="640" y="-904" type="curve"/>
      <point x="664" y="-712"/>
      <point x="944" y="-648"/>
      <point x="1232" y="-648" type="curve" smooth="yes"/>
      <point x="1504" y="-648"/>
      <point x="1776" y="-576"/>
      <point x="1808" y="-640" type="curve"/>
      <point x="1808" y="-896"/>
      <point x="1744" y="-200"/>
      <point x="1560" y="-200" type="curve"/>
      <point x="1488" y="112"/>
      <point x="1584" y="288"/>
      <point x="1784" y="408" type="curve"/>
      <point x="2000" y="192"/>
      <point x="2320" y="-208"/>
      <point x="2848" y="-320" type="curve" smooth="yes"/>
      <point x="3360" y="-416"/>
      <point x="3616" y="128"/>
      <point x="3664" y="912" type="curve"/>
      <point x="3576" y="912"/>
      <point x="4064" y="4176"/>
      <point x="4064" y="4272" type="curve"/>
      <point x="4216" y="5176"/>
      <point x="4824" y="6016"/>
      <point x="5880" y="6016" type="curve" smooth="yes"/>
      <point x="6576" y="6016"/>
      <point x="6856" y="5656"/>
    </contour>
    <contour>
      <point x="4224" y="4992" type="curve"/>
      <point x="4176" y="5280"/>
      <point x="3856" y="5664"/>
      <point x="3232" y="5664" type="curve" smooth="yes"/>
      <point x="2608" y="5664"/>
      <point x="2224" y="4896"/>
      <point x="2048" y="3920" type="curve" smooth="yes"/>
      <point x="1336" y="-96" type="line" smooth="yes"/>
      <point x="1136" y="-1216"/>
      <point x="376" y="-2080"/>
      <point x="-664" y="-2080" type="curve" smooth="yes"/>
      <point x="-1360" y="-2080"/>
      <point x="-1672" y="-1608"/>
      <point x="-1672" y="-1240" type="curve" smooth="yes"/>
      <point x="-1672" y="-880"/>
      <point x="-1440" y="-680"/>
      <point x="-1152" y="-680" type="curve" smooth="yes"/>
      <point x="-904" y="-680"/>
      <point x="-624" y="-824"/>
      <point x="-624" y="-1176" type="curve" smooth="yes"/>
      <point x="-624" y="-1528"/>
      <point x="-888" y="-1696"/>
      <point x="-1168" y="-1696" type="curve" smooth="yes"/>
      <point x="-1368" y="-1696"/>
      <point x="-1568" y="-1560"/>
      <point x="-1632" y="-1392" type="curve"/>
      <point x="-1584" y="-1680"/>
      <point x="-1264" y="-2064"/>
      <point x="-704" y="-2064" type="curve" smooth="yes"/>
      <point x="-144" y="-2064"/>
      <point x="240" y="-1296"/>
      <point x="416" y="-320" type="curve" smooth="yes"/>
      <point x="1128" y="3696" type="line" smooth="yes"/>
      <point x="1328" y="4816"/>
      <point x="2088" y="5680"/>
      <point x="3192" y="5680" type="curve" smooth="yes"/>
      <point x="3952" y="5680"/>
      <point x="4264" y="5208"/>
      <point x="4264" y="4840" type="curve" smooth="yes"/>
      <point x="4264" y="4480"/>
      <point x="4032" y="4280"/>
      <point x="3744" y="4280" type="curve" smooth="yes"/>
      <point x="3496" y="4280"/>
      <point x="3216" y="4424"/>
      <point x="3216" y="4776" type="curve" smooth="yes"/>
      <point x="3216" y="5128"/>
      <point x="3480" y="5296"/>
      <point x="3760" y="5296" type="curve" smooth="yes"/>
      <point x="3960" y="5296"/>
      <point x="4160" y="5152"/>
    </contour>
  </outline>
</glyph>
<glyph name="uniFB04" format="2">
  <advance width="955"/>
  <unicode hex="FB04"/>
  <outline>
    <contour>
      <point x="935" y="163" type="line"/>
      <point x="897" y="63"/>
      <point x="834" y="-10"/>
      <point x="747" y="-10" type="curve" smooth="yes"/>
      <point x="694" y="-10"/>
      <point x="667" y="13"/>
      <point x="667" y="67" type="curve" smooth="yes"/>
      <point x="667" y="72"/>
      <point x="668" y="83"/>
      <point x="669" y="89" type="curve" smooth="yes"/>
      <point x="816" y="730" type="line"/>
      <point x="935" y="770" type="line"/>
      <point x="766" y="40" type="line" smooth="yes"/>
      <point x="765" y="34"/>
      <point x="764" y="27"/>
      <point x="764" y="22" type="curve" smooth="yes"/>
      <point x="764" y="11"/>
      <point x="769" y="2"/>
      <point x="782" y="2" type="curve" smooth="yes"/>
      <point x="841" y="2"/>
      <point x="901" y="74"/>
      <point x="934" y="164" type="curve"/>
    </contour>
    <contour>
      <point x="59" y="460" type="line"/>
      <point x="689" y="460" type="line"/>
      <point x="689" y="458" type="line"/>
      <point x="59" y="458" type="line"/>
    </contour>
    <contour>
      <point x="844" y="674" type="curve"/>
      <point x="838" y="710"/>
      <point x="807" y="758"/>
      <point x="729" y="758" type="curve" smooth="yes"/>
      <point x="647" y="758"/>
      <point x="581" y="662"/>
      <point x="559" y="540" type="curve" smooth="yes"/>
      <point x="470" y="38" type="line" smooth="yes"/>
      <point x="445" y="-102"/>
      <point x="353" y="-210"/>
      <point x="215" y="-210" type="curve" smooth="yes"/>
      <point x="120" y="-210"/>
      <point x="82" y="-151"/>
      <point x="82" y="-105" type="curve" smooth="yes"/>
      <point x="82" y="-60"/>
      <point x="111" y="-35"/>
      <point x="147" y="-35" type="curve" smooth="yes"/>
      <point x="178" y="-35"/>
      <point x="213" y="-53"/>
      <point x="213" y="-97" type="curve" smooth="yes"/>
      <point x="213" y="-141"/>
      <point x="179" y="-162"/>
      <point x="144" y="-162" type="curve" smooth="yes"/>
      <point x="119" y="-162"/>
      <point x="95" y="-145"/>
      <point x="87" y="-124" type="curve"/>
      <point x="93" y="-160"/>
      <point x="133" y="-208"/>
      <point x="211" y="-208" type="curve" smooth="yes"/>
      <point x="289" y="-208"/>
      <point x="336" y="-112"/>
      <point x="358" y="10" type="curve" smooth="yes"/>
      <point x="444" y="512" type="line" smooth="yes"/>
      <point x="469" y="652"/>
      <point x="582" y="760"/>
      <point x="724" y="760" type="curve" smooth="yes"/>
      <point x="819" y="760"/>
      <point x="850" y="701"/>
      <point x="850" y="655" type="curve" smooth="yes"/>
      <point x="850" y="610"/>
      <point x="821" y="585"/>
      <point x="785" y="585" type="curve" smooth="yes"/>
      <point x="754" y="585"/>
      <point x="719" y="603"/>
      <point x="719" y="647" type="curve" smooth="yes"/>
      <point x="719" y="691"/>
      <point x="752" y="712"/>
      <point x="787" y="712" type="curve" smooth="yes"/>
      <point x="812" y="712"/>
      <point x="836" y="694"/>
    </contour>
    <contour>
      <point x="528" y="624" type="curve"/>
      <point x="522" y="660"/>
      <point x="482" y="708"/>
      <point x="404" y="708" type="curve" smooth="yes"/>
      <point x="326" y="708"/>
      <point x="278" y="612"/>
      <point x="256" y="490" type="curve" smooth="yes"/>
      <point x="167" y="-12" type="line" smooth="yes"/>
      <point x="142" y="-152"/>
      <point x="47" y="-260"/>
      <point x="-83" y="-260" type="curve" smooth="yes"/>
      <point x="-170" y="-260"/>
      <point x="-209" y="-201"/>
      <point x="-209" y="-155" type="curve" smooth="yes"/>
      <point x="-209" y="-110"/>
      <point x="-180" y="-85"/>
      <point x="-144" y="-85" type="curve" smooth="yes"/>
      <point x="-113" y="-85"/>
      <point x="-78" y="-103"/>
      <point x="-78" y="-147" type="curve" smooth="yes"/>
      <point x="-78" y="-191"/>
      <point x="-111" y="-212"/>
      <point x="-146" y="-212" type="curve" smooth="yes"/>
      <point x="-171" y="-212"/>
      <point x="-196" y="-195"/>
      <point x="-204" y="-174" type="curve"/>
      <point x="-198" y="-210"/>
      <point x="-158" y="-258"/>
      <point x="-88" y="-258" type="curve" smooth="yes"/>
      <point x="-18" y="-258"/>
      <point x="30" y="-162"/>
      <point x="52" y="-40" type="curve" smooth="yes"/>
      <point x="141" y="462" type="line" smooth="yes"/>
      <point x="166" y="602"/>
      <point x="261" y="710"/>
      <point x="399" y="710" type="curve" smooth="yes"/>
      <point x="494" y="710"/>
      <point x="533" y="651"/>
      <point x="533" y="605" type="curve" smooth="yes"/>
      <point x="533" y="560"/>
      <point x="504" y="535"/>
      <point x="468" y="535" type="curve" smooth="yes"/>
      <point x="437" y="535"/>
      <point x="402" y="553"/>
      <point x="402" y="597" type="curve" smooth="yes"/>
      <point x="402" y="641"/>
      <point x="435" y="662"/>
      <point x="470" y="662" type="curve" smooth="yes"/>
      <point x="495" y="662"/>
      <point x="520" y="644"/>
    </contour>
  </outline>
</glyph>
<glyph name="J.alt" format="2">
  <advance width="4576"/>
  <outline>
    <contour>
      <point x="2784" y="6000" type="line"/>
      <point x="5504" y="6000" type="line"/>
      <point x="5504" y="5984" type="line"/>
      <point x="2784" y="5984" type="line"/>
    </contour>
    <contour>
      <point x="3744" y="6000" type="line"/>
      <point x="4704" y="6000" type="line"/>
      <point x="3824" y="2240" type="line" smooth="yes"/>
      <point x="3536" y="1024"/>
      <point x="2592" y="-80"/>
      <point x="1304" y="-80" type="curve" smooth="yes"/>
      <point x="448" y="-80"/>
      <point x="40" y="520"/>
      <point x="40" y="1160" type="curve" smooth="yes"/>
      <point x="40" y="1768"/>
      <point x="368" y="2080"/>
      <point x="752" y="2080" type="curve" smooth="yes"/>
      <point x="1096" y="2080"/>
      <point x="1376" y="1888"/>
      <point x="1376" y="1472" type="curve" smooth="yes"/>
      <point x="1376" y="1144"/>
      <point x="1112" y="872"/>
      <point x="712" y="872" type="curve" smooth="yes"/>
      <point x="392" y="872"/>
      <point x="136" y="1080"/>
      <point x="64" y="1280" type="curve"/>
      <point x="0" y="560"/>
      <point x="456" y="-64"/>
      <point x="1304" y="-64" type="curve" smooth="yes"/>
      <point x="2272" y="-64"/>
      <point x="2632" y="928"/>
      <point x="2864" y="2000" type="curve" smooth="yes"/>
    </contour>
  </outline>
</glyph>
<glyph name="fj.lig" format="2">
  <advance width="2436"/>
  <outline>
    <contour>
      <point x="1454" y="102" type="curve" smooth="yes"/>
      <point x="1802" y="1873" type="line"/>
      <point x="247" y="1876" type="line"/>
      <point x="247" y="1884" type="line"/>
      <point x="2265" y="1884" type="line"/>
      <point x="1936" y="156" type="line" smooth="yes"/>
      <point x="1839" y="-359"/>
      <point x="1445" y="-860"/>
      <point x="881" y="-860" type="curve" smooth="yes"/>
      <point x="509" y="-860"/>
      <point x="326" y="-626"/>
      <point x="326" y="-428" type="curve" smooth="yes"/>
      <point x="326" y="-240"/>
      <point x="463" y="-128"/>
      <point x="616" y="-128" type="curve" smooth="yes"/>
      <point x="749" y="-128"/>
      <point x="890" y="-214"/>
      <point x="890" y="-385" type="curve" smooth="yes"/>
      <point x="890" y="-566"/>
      <point x="744" y="-663"/>
      <point x="600" y="-663" type="curve" smooth="yes"/>
      <point x="464" y="-663"/>
      <point x="372" y="-571"/>
      <point x="354" y="-508" type="curve"/>
      <point x="384" y="-668"/>
      <point x="560" y="-851"/>
      <point x="876" y="-851" type="curve" smooth="yes"/>
      <point x="1224" y="-851"/>
      <point x="1355" y="-393"/>
    </contour>
    <contour>
      <point x="2353" y="2751" type="curve"/>
      <point x="2317" y="2923"/>
      <point x="2146" y="3102"/>
      <point x="1790" y="3102" type="curve" smooth="yes"/>
      <point x="1432" y="3102"/>
      <point x="1208" y="2712"/>
      <point x="1119" y="2212" type="curve" smooth="yes"/>
      <point x="710" y="-50" type="line" smooth="yes"/>
      <point x="605" y="-633"/>
      <point x="221" y="-1064"/>
      <point x="-311" y="-1064" type="curve" smooth="yes"/>
      <point x="-674" y="-1064"/>
      <point x="-840" y="-821"/>
      <point x="-840" y="-629" type="curve" smooth="yes"/>
      <point x="-840" y="-441"/>
      <point x="-719" y="-334"/>
      <point x="-566" y="-334" type="curve" smooth="yes"/>
      <point x="-433" y="-334"/>
      <point x="-284" y="-412"/>
      <point x="-284" y="-596" type="curve" smooth="yes"/>
      <point x="-284" y="-780"/>
      <point x="-428" y="-869"/>
      <point x="-577" y="-869" type="curve" smooth="yes"/>
      <point x="-720" y="-869"/>
      <point x="-804" y="-753"/>
      <point x="-823" y="-703" type="curve"/>
      <point x="-795" y="-848"/>
      <point x="-645" y="-1052"/>
      <point x="-334" y="-1052" type="curve" smooth="yes"/>
      <point x="-48" y="-1052"/>
      <point x="149" y="-664"/>
      <point x="235" y="-164" type="curve" smooth="yes"/>
      <point x="629" y="2098" type="line" smooth="yes"/>
      <point x="731" y="2684"/>
      <point x="1153" y="3112"/>
      <point x="1767" y="3112" type="curve" smooth="yes"/>
      <point x="2212" y="3112"/>
      <point x="2368" y="2869"/>
      <point x="2368" y="2677" type="curve" smooth="yes"/>
      <point x="2368" y="2489"/>
      <point x="2247" y="2382"/>
      <point x="2094" y="2382" type="curve" smooth="yes"/>
      <point x="1961" y="2382"/>
      <point x="1812" y="2460"/>
      <point x="1812" y="2644" type="curve" smooth="yes"/>
      <point x="1812" y="2828"/>
      <point x="1956" y="2917"/>
      <point x="2105" y="2917" type="curve" smooth="yes"/>
      <point x="2245" y="2917"/>
      <point x="2326" y="2814"/>
    </contour>
  </outline>
</glyph>
<glyph name="four.alt" format="2">
  <advance width="619"/>
  <outline>
    <contour>
      <point x="544" y="498" type="curve"/>
      <point x="433" y="-1" type="line"/>
      <point x="314" y="-1" type="line"/>
      <point x="418" y="468" type="line"/>
      <point x="456" y="468"/>
      <point x="518" y="484"/>
    </contour>
    <contour>
      <point x="516" y="2" type="line"/>
      <point x="516" y="0" type="line"/>
      <point x="227" y="0" type="line"/>
      <point x="227" y="2" type="line"/>
    </contour>
    <contour>
      <point x="19" y="196" type="curve"/>
      <point x="569" y="196" type="line"/>
      <point x="569" y="194" type="line"/>
      <point x="15" y="194" type="line"/>
      <point x="161" y="394"/>
      <point x="440" y="598"/>
      <point x="466" y="750" type="curve"/>
      <point x="592" y="750" type="line"/>
      <point x="571" y="597"/>
      <point x="167" y="384"/>
    </contour>
  </outline>
</glyph>
<glyph name="v.alt" format="2">
  <advance width="3888"/>
  <outline>
    <contour>
      <point x="1480" y="3800" type="curve"/>
      <point x="1488" y="3792" type="line"/>
      <point x="1160" y="3608"/>
      <point x="1080" y="3336"/>
      <point x="1080" y="3080" type="curve" smooth="yes"/>
      <point x="1080" y="2400"/>
      <point x="1904" y="2072"/>
      <point x="1904" y="1080" type="curve" smooth="yes"/>
      <point x="1904" y="944"/>
      <point x="1856" y="472"/>
      <point x="1840" y="288" type="curve"/>
      <point x="3112" y="968"/>
      <point x="3832" y="1696"/>
      <point x="3832" y="2752" type="curve" smooth="yes"/>
      <point x="3832" y="2928"/>
      <point x="3800" y="3168"/>
      <point x="3744" y="3248" type="curve"/>
      <point x="3728" y="3024"/>
      <point x="3528" y="2680"/>
      <point x="3120" y="2680" type="curve" smooth="yes"/>
      <point x="2752" y="2680"/>
      <point x="2576" y="2968"/>
      <point x="2576" y="3216" type="curve" smooth="yes"/>
      <point x="2576" y="3504"/>
      <point x="2800" y="3752"/>
      <point x="3144" y="3752" type="curve" smooth="yes"/>
      <point x="3696" y="3752"/>
      <point x="3848" y="3240"/>
      <point x="3848" y="2752" type="curve" smooth="yes"/>
      <point x="3848" y="1400"/>
      <point x="2688" y="664"/>
      <point x="1128" y="-96" type="curve"/>
      <point x="968" y="-56" type="line"/>
      <point x="984" y="120"/>
      <point x="1016" y="688"/>
      <point x="1016" y="848" type="curve" smooth="yes"/>
      <point x="1016" y="1464"/>
      <point x="240" y="1992"/>
      <point x="240" y="2584" type="curve" smooth="yes"/>
      <point x="240" y="3224"/>
      <point x="952" y="3592"/>
    </contour>
  </outline>
</glyph>
